<?xml version="1.0" encoding="UTF-8"?>
<svg version="1.1" xmlns="http://www.w3.org/2000/svg" width="1200" height="1200">
<path d="M0 0 C29.05637283 18.28131235 59.90382986 27.89127058 94.35499573 27.43226433 C96.7386073 27.40127295 99.1219622 27.38506223 101.5057373 27.37220764 C108.26915931 27.33311591 115.03226361 27.26771619 121.79541016 27.19604492 C125.97121279 27.15278827 130.14691297 27.12503767 134.32289124 27.10574532 C135.88864735 27.09535323 137.4543786 27.07916588 139.02000427 27.05644035 C163.55592975 26.70053179 186.18582907 32.27916718 204.46606445 49.56347656 C217.83892199 62.61664016 227.28563408 78.05230916 236.75 94 C251.05666852 118.03626548 269.03507958 137.56024137 292.1875 153.3125 C292.82268555 153.74498047 293.45787109 154.17746094 294.11230469 154.62304688 C306.61290174 162.9819177 320.11505673 169.31458885 333.671875 175.734375 C360.77539955 188.58552337 383.45975687 202.86849069 394.26953125 232.25390625 C399.01675048 246.46000424 400.31943614 261.10674499 401.625 275.9375 C405.82087624 323.33189201 418.68066376 363.95319609 448.3125 401.5 C470.36607346 429.44595622 482.06619256 456.55387268 478.96923828 492.87207031 C476.91357938 509.83035304 470.47019349 525.28951283 463.8828125 540.8828125 C453.14743875 566.37444544 443.77438652 591.48659555 443.8125 619.5 C443.81382935 621.30271362 443.81382935 621.30271362 443.81518555 623.1418457 C443.97772092 635.75772598 445.89035553 647.93414877 448.1875 660.3125 C448.62584234 662.74854866 449.06058192 665.18519374 449.49291992 667.62231445 C449.84117411 669.56163408 450.20677054 671.49781913 450.57421875 673.43359375 C455.21353227 702.77651305 453.99494557 734.06675656 436.375 759 C426.36112542 771.8508576 414.31509943 782.75341161 401.1875 792.3125 C362.98930219 821.09510998 342.22236243 856.73879297 327.70703125 901.9296875 C322.05674527 919.5012749 316.49210028 936.13808301 304.1875 950.3125 C303.7440625 950.89773438 303.300625 951.48296875 302.84375 952.0859375 C285.41233387 974.48328032 253.34077205 980.02436742 227.28637695 985.06762695 C182.8414162 993.77695219 149.24806932 1013.4389963 117.90991211 1045.66333008 C112.76192649 1050.91594353 107.44932271 1055.72656408 101.69506836 1060.30957031 C99.22814435 1062.28003517 96.83168406 1064.31720423 94.4375 1066.375 C76.57088642 1080.58321175 54.27267685 1086.35572549 31.6953125 1083.84765625 C18.84227866 1082.22325815 6.6029308 1078.92101665 -5.8125 1075.3125 C-25.6193121 1069.49795058 -25.6193121 1069.49795058 -45.8125 1065.3125 C-46.93527344 1065.13074219 -48.05804687 1064.94898438 -49.21484375 1064.76171875 C-79.03686739 1061.21105514 -107.4344906 1066.50752252 -135.8125 1075.3125 C-164.35896153 1084.06754866 -193.90223329 1089.7502921 -221.8125 1075.3125 C-232.72709555 1069.47408336 -241.73696974 1061.63953292 -250.8125 1053.3125 C-252.20275391 1052.06146484 -252.20275391 1052.06146484 -253.62109375 1050.78515625 C-258.52905041 1046.34648629 -263.30755691 1041.84517498 -267.93041992 1037.10913086 C-295.16689285 1009.25958184 -329.09915172 993.2141323 -366.9765625 985.3671875 C-367.79537399 985.19744415 -368.61418549 985.02770081 -369.45780945 984.85281372 C-373.562416 984.00700149 -377.66981174 983.18012563 -381.78344727 982.37939453 C-395.75732737 979.60877849 -410.06602811 976.06732057 -422.625 969.125 C-423.31529297 968.74899658 -424.00558594 968.37299316 -424.71679688 967.9855957 C-450.53256344 953.38228638 -461.13200606 928.01295285 -469.8125 901 C-484.18697591 856.50433293 -504.12326574 821.97728191 -541.5 793.14648438 C-548.86629856 787.45819955 -556.08048504 781.75376349 -562.8125 775.3125 C-563.77414062 774.425625 -564.73578125 773.53875 -565.7265625 772.625 C-582.9729155 756.40168925 -592.9215584 736.14526025 -593.94067383 712.31542969 C-594.31054436 696.35919103 -593.54086921 681.02979592 -590.8125 665.3125 C-590.64137695 664.30687012 -590.47025391 663.30124023 -590.29394531 662.26513672 C-589.44549731 657.28958416 -588.57623356 652.31865936 -587.6796875 647.3515625 C-584.00950718 626.34509715 -584.75996663 605.01199308 -589.8125 584.3125 C-589.98910156 583.57563965 -590.16570312 582.8387793 -590.34765625 582.07958984 C-593.24284559 570.38356105 -597.89627715 559.40805487 -602.55371094 548.32470703 C-615.21808102 518.01962594 -615.21808102 518.01962594 -617.8125 507.3125 C-618.10769531 506.10078125 -618.40289063 504.8890625 -618.70703125 503.640625 C-624.93823469 475.290208 -620.60207457 446.79523468 -605.12011719 422.28759766 C-599.52859036 413.84184485 -593.32699844 405.77241446 -587.07421875 397.80859375 C-558.09543991 360.88029345 -547.6628064 321.09616342 -543.25 275.0625 C-540.31811695 244.6990459 -533.99389811 215.63632423 -510.00390625 194.8828125 C-497.48216524 185.06250544 -483.4903606 178.60836986 -468.96655273 172.33081055 C-429.80610182 155.34709648 -398.58961355 128.4770103 -376.91015625 91.7421875 C-376.56384659 91.15549286 -376.21753693 90.56879822 -375.86073303 89.96432495 C-374.12744117 87.02239555 -372.40555478 84.0748091 -370.6965332 81.11865234 C-356.56092497 56.8665045 -337.64851882 37.34825059 -309.90441895 29.81266785 C-300.36153256 27.53100921 -291.0852269 27.06348016 -281.32648087 27.19273567 C-278.94189626 27.22350685 -276.55756586 27.23988266 -274.17282104 27.25279236 C-267.40049987 27.29202074 -260.62848683 27.35670562 -253.85644531 27.42895508 C-207.54306658 27.90422094 -172.36278695 19.38227388 -132.75390625 -5.20703125 C-85.03565012 -34.66040901 -45.76976317 -28.81675998 0 0 Z " fill="#FEFEFE" transform="translate(670.8125,76.6875)"/>
<path d="M0 0 C6.43942388 4.42197232 10.58373048 9.52944266 13 17 C13.65916094 22.66091975 13.58526488 28.25466237 13.48828125 33.9453125 C13.47893798 35.567687 13.47182903 37.19007575 13.46684265 38.81246948 C13.44789157 43.05094404 13.3988966 47.28854093 13.34332275 51.52667236 C13.29187087 55.86401502 13.26927365 60.20150163 13.24414062 64.5390625 C13.19076353 73.02644125 13.10559883 81.51311098 13 90 C13.92651367 90.13720459 14.85302734 90.27440918 15.80761719 90.41577148 C25.81978466 92.24806858 34.4491245 99.55250947 42 106 C42.82886719 106.63808594 43.65773438 107.27617187 44.51171875 107.93359375 C59.7270871 120.56927641 69.91801637 142.68663969 72 162 C73.53757565 179.57822969 70.86153158 196.05600858 62.66308594 211.78588867 C60.736112 218.22025046 64.90141216 224.3888998 67.70703125 229.98828125 C68.18435699 230.95678009 68.66168274 231.92527893 69.1534729 232.92312622 C70.69944889 236.05644997 72.25596943 239.18440815 73.8125 242.3125 C74.86880634 244.44951325 75.92422595 246.58696504 76.97875977 248.72485352 C78.54267247 251.8952687 80.10704943 255.06544072 81.67436218 258.23417664 C85.65123127 266.27577201 89.57092413 274.34230008 93.4375 282.4375 C93.92001221 283.44659424 94.40252441 284.45568848 94.8996582 285.49536133 C95.93483557 287.66275778 96.96857035 289.83081832 98 292 C102.88473243 290.94930264 107.7330426 289.82939304 112.56640625 288.5625 C159.988489 276.14158789 205.25281953 282.49360026 247.7421875 307.01953125 C251 309 251 309 253.2578125 310.82421875 C254.12019531 311.40623047 254.12019531 311.40623047 255 312 C258.29263513 310.90245496 258.6132752 310.51074338 260.41674805 307.75634766 C260.87119797 307.07118073 261.32564789 306.38601379 261.79386902 305.68008423 C262.27825943 304.93229706 262.76264984 304.18450989 263.26171875 303.4140625 C263.7712056 302.64250824 264.28069244 301.87095398 264.80561829 301.07601929 C266.44060025 298.59730605 268.06451056 296.11157863 269.6875 293.625 C273.31587943 288.09411385 276.95696792 282.57206657 280.62738037 277.06896973 C281.49876068 275.75552539 282.36383586 274.43785876 283.22027588 273.11462402 C284.25964893 271.50945615 285.32599235 269.9218394 286.39453125 268.3359375 C286.9563208 267.48306152 287.51811035 266.63018555 288.09692383 265.75146484 C290 264 290 264 293.10424805 263.66259766 C296 264 296 264 297.9375 265.0625 C299.65183265 268.18863602 298.72990687 270.59015638 298 274 C296.33276367 277.0793457 296.33276367 277.0793457 294.16796875 280.17578125 C293.77960846 280.73941879 293.39124817 281.30305634 292.99111938 281.8837738 C291.7348747 283.70174668 290.46142647 285.50688594 289.1875 287.3125 C288.32048277 288.56122024 287.45484783 289.81090134 286.59057617 291.06152344 C284.87085265 293.54846724 283.14584844 296.03160495 281.41699219 298.51220703 C278.14865297 303.21360215 274.97357056 307.9760274 271.8125 312.75 C271.31451904 313.49934814 270.81653809 314.24869629 270.3034668 315.02075195 C269.20105483 316.67966708 268.10029251 318.33967836 267 320 C269.58335049 322.59277877 272.17597798 325.17155395 274.796875 327.7265625 C281.34773061 334.13086406 287.46771634 340.67449335 293 348 C293.41572266 348.55042969 293.83144531 349.10085938 294.25976562 349.66796875 C315.90817409 378.72494367 330.51982539 415.37593836 330 452 C331.10189919 451.98660835 331.10189919 451.98660835 332.22605896 451.97294617 C339.30811191 451.92432182 346.29069323 452.19356861 353.34765625 452.76953125 C354.36677597 452.85120041 355.38589569 452.93286957 356.43589783 453.01701355 C358.56450452 453.19000032 360.69288846 453.3657491 362.82104492 453.54418945 C366.08484703 453.81434977 369.34982962 454.06450856 372.61523438 454.31445312 C374.69280961 454.48575531 376.77028789 454.65823833 378.84765625 454.83203125 C379.82259537 454.90404251 380.79753448 454.97605377 381.80201721 455.05024719 C382.70403366 455.13010361 383.60605011 455.20996002 384.53540039 455.29223633 C385.32749405 455.35663406 386.11958771 455.4210318 386.9356842 455.48738098 C389.46634559 456.11580477 390.43566686 456.93425468 392 459 C392.64249748 464.13997986 392.64249748 464.13997986 390.75390625 466.66796875 C385.14690425 470.92629321 373.35439566 467.58044783 366.63793945 466.85717773 C358.52163719 466.00113515 350.39167128 465.4210011 342.25 464.875 C340.94562988 464.78750488 339.64125977 464.70000977 338.29736328 464.60986328 C335.1983904 464.40420304 332.09929592 464.20072491 329 464 C329.01812744 464.73863281 329.03625488 465.47726562 329.05493164 466.23828125 C329.56290255 502.78896486 312.6749072 538.82946892 289 566 C288.16984375 566.96421875 287.3396875 567.9284375 286.484375 568.921875 C275.54401553 581.39068195 262.97692867 591.15186028 249 600 C249.62662898 604.385885 251.29745596 608.00481699 253.2734375 611.91796875 C253.94017699 613.26884427 254.60684122 614.61975693 255.2734375 615.97070312 C256.31985866 618.07356021 257.36880534 620.17512082 258.41992188 622.27563477 C264.7706555 634.9996117 268.90610982 646.13450179 269.31640625 660.5390625 C269.33741394 661.25023727 269.35842163 661.96141205 269.38006592 662.69413757 C269.44623513 665.00431653 269.50540363 667.31457979 269.5625 669.625 C269.58234955 670.41546722 269.6021991 671.20593445 269.62265015 672.02035522 C269.74289976 676.8965168 269.84977639 681.77286326 269.94995117 686.6494751 C269.99792087 688.90235438 270.05182936 691.1550124 270.10742188 693.40771484 C270.20292638 697.37569876 270.2607866 701.34368981 270.3125 705.3125 C270.35709351 707.08778076 270.35709351 707.08778076 270.40258789 708.89892578 C270.4485366 715.51457296 270.05267312 719.67175531 266 725 C261.21962451 728.70722998 257.28794742 730.46862467 251.15625 730.32421875 C244.03787309 729.25388309 238.44674703 722.95334007 233.19604492 718.42797852 C229.26061469 715.03703086 225.23566211 711.80034007 221.125 708.625 C215.93711051 704.59866559 210.90119982 700.42475768 205.9375 696.125 C205.3182666 695.58955566 204.6990332 695.05411133 204.06103516 694.50244141 C200.57181818 691.45642089 197.24085745 688.31324773 194 685 C193.13955078 684.17048828 193.13955078 684.17048828 192.26171875 683.32421875 C188.31850994 679.22445575 185.71719579 674.77316099 183.2578125 669.6796875 C182.55158813 668.24198957 181.84512028 666.80441122 181.13842773 665.36694336 C180.78247528 664.63853241 180.42652283 663.91012146 180.05978394 663.15963745 C178.43225945 659.84305308 176.76829387 656.54507797 175.10546875 653.24609375 C168.79598826 640.6864067 162.51840325 628.1181964 156.49584961 615.41772461 C151.82076247 605.57592917 147.03313871 595.78958258 142.25 586 C135.89440709 572.98987123 129.551991 559.9736896 123.25 546.9375 C122.92567993 546.26662354 122.60135986 545.59574707 122.26721191 544.90454102 C120.51052335 541.27015308 118.75478158 537.63530903 117 534 C116.40719238 534.18248291 115.81438477 534.36496582 115.20361328 534.55297852 C108.79763927 536.50270411 102.35831418 538.26477639 95.875 539.9375 C94.36123779 540.32881104 94.36123779 540.32881104 92.81689453 540.72802734 C90.79875634 541.24886829 88.78037066 541.76875134 86.76171875 542.28759766 C84.40155417 542.89641663 82.04407928 543.51421544 79.6875 544.13671875 C48.56193382 552.20512884 16.59915934 555.2303861 -15.5 555.1875 C-16.27725433 555.18722809 -17.05450867 555.18695618 -17.85531616 555.18667603 C-31.64647593 555.16467775 -45.28649144 554.53488503 -59 553 C-60.44971191 552.83927002 -60.44971191 552.83927002 -61.92871094 552.67529297 C-79.57018033 550.66138644 -97.42743566 548.27476459 -114.44140625 543.06640625 C-118.80747825 541.75802243 -123.21080238 540.63288536 -127.625 539.5 C-134.866812 537.62597163 -141.95188471 535.51818889 -149 533 C-149.21785156 533.76441406 -149.43570313 534.52882813 -149.66015625 535.31640625 C-151.51136601 540.40588383 -153.97858359 545.11800841 -156.4375 549.9375 C-160.37491478 557.73313544 -164.25769409 565.54630759 -168 573.4375 C-173.19293889 584.37159733 -178.4984121 595.24939917 -183.8125 606.125 C-189.52712874 617.82062855 -195.23083583 629.5209087 -200.87701416 641.24975586 C-203.24606184 646.16905364 -205.62308386 651.08450095 -208 656 C-208.41169434 656.85352051 -208.82338867 657.70704102 -209.24755859 658.58642578 C-217.81416454 676.29613023 -227.36977711 688.84845476 -243 701 C-244.81698233 702.47365718 -246.62937513 703.95298839 -248.4375 705.4375 C-249.35660156 706.1903125 -250.27570313 706.943125 -251.22265625 707.71875 C-253.04534235 709.21586488 -254.86573605 710.71577595 -256.68359375 712.21875 C-261.7348643 716.38293239 -266.83260761 720.48115766 -272 724.5 C-272.55220215 724.93368896 -273.1044043 725.36737793 -273.67333984 725.81420898 C-279.01270604 729.93572346 -283.39637736 730.76914074 -290 730 C-294.72246225 728.47187381 -297.80739985 725.75577252 -300.18603516 721.35418701 C-302.02621791 716.03192479 -301.56916249 710.26451333 -301.53125 704.6953125 C-301.53395169 703.28872409 -301.53783971 701.88213751 -301.54284668 700.47555542 C-301.5487294 697.52844447 -301.54023226 694.58181976 -301.52148438 691.63476562 C-301.49890174 687.9083278 -301.51208751 684.18304432 -301.53521442 680.45664787 C-301.63916463 660.85475201 -301.03259573 643.45020463 -291.8125 625.625 C-290.73918409 623.4689487 -289.66629243 621.31268618 -288.59375 619.15625 C-287.7275 617.43728516 -287.7275 617.43728516 -286.84375 615.68359375 C-283.78850526 609.6042635 -280.8483903 603.46827666 -277.88632202 597.34320068 C-276.071136 593.59355987 -274.2482331 589.84767579 -272.42578125 586.1015625 C-269.52584558 580.13874789 -266.62721473 574.17530235 -263.73046875 568.2109375 C-263.38057892 567.49053284 -263.03068909 566.77012817 -262.67019653 566.02789307 C-260.91340484 562.41061456 -259.156821 558.79323521 -257.40039062 555.17578125 C-254.11366893 548.40715688 -250.825305 541.63934649 -247.53091431 534.87445068 C-245.99357615 531.71732441 -244.45720331 528.5597288 -242.92089844 525.40209961 C-242.19595459 523.91277114 -241.4705502 522.42366674 -240.74462891 520.93481445 C-236.3899681 512.00314899 -232.12167024 503.04227162 -228 494 C-229.11906738 493.57811401 -229.11906738 493.57811401 -230.26074219 493.14770508 C-232.66897871 492.13869261 -234.65920474 491.0699769 -236.828125 489.63671875 C-237.53702881 489.16854736 -238.24593262 488.70037598 -238.97631836 488.21801758 C-239.7266333 487.71294678 -240.47694824 487.20787598 -241.25 486.6875 C-242.03705322 486.15987061 -242.82410645 485.63224121 -243.63500977 485.08862305 C-252.02306058 479.4020217 -260.05195186 473.28175975 -268 467 C-269.00675781 466.20851563 -270.01351562 465.41703125 -271.05078125 464.6015625 C-277.29405248 459.59610337 -283.16124688 454.23725039 -289.00390625 448.77734375 C-291.33140733 446.60650837 -293.70291352 444.50296025 -296.125 442.4375 C-303.23869686 436.27129342 -309.92423537 429.48123046 -316.0234375 422.3125 C-317.59129691 420.47816646 -319.18014655 418.67288617 -320.7890625 416.875 C-331.29672059 405.05715603 -340.71836762 392.46034058 -349.8828125 379.58203125 C-350.45660645 378.77612549 -351.03040039 377.97021973 -351.62158203 377.13989258 C-354.64244103 372.45023103 -354.91978096 367.39766194 -354 362 C-350.50414058 355.19966032 -343.19118449 351.04859327 -337.05859375 346.8203125 C-332.57186599 343.72594122 -328.19234373 340.49316573 -323.8125 337.25 C-322.20444395 336.06247716 -320.5963708 334.87497747 -318.98828125 333.6875 C-317.76939209 332.78644531 -317.76939209 332.78644531 -316.52587891 331.8671875 C-312.18580274 328.65890386 -307.84323503 325.45400535 -303.5 322.25 C-302.69280518 321.65348633 -301.88561035 321.05697266 -301.05395508 320.44238281 C-299.92896606 319.6123877 -299.92896606 319.6123877 -298.78125 318.765625 C-298.12189453 318.27868164 -297.46253906 317.79173828 -296.78320312 317.29003906 C-293.14193266 314.65580123 -291.17017929 313.6870011 -286.6875 313.625 C-285.76324219 313.59664063 -284.83898437 313.56828125 -283.88671875 313.5390625 C-279.49703721 314.23998594 -276.51876645 316.16518482 -273.6730957 319.60302734 C-272.3269019 321.49340528 -271.06293622 323.42002695 -269.8125 325.375 C-262.22037707 336.79968498 -253.87648465 347.30861677 -244.5 357.31640625 C-242.36370577 359.60958458 -240.29297234 361.93663261 -238.25 364.3125 C-232.6425769 370.75903867 -226.48409051 376.45153329 -220 382 C-219.08734375 382.80179688 -218.1746875 383.60359375 -217.234375 384.4296875 C-210.8686078 389.97505533 -204.27933418 395.11481858 -197.4375 400.0625 C-196.6635791 400.62275879 -195.8896582 401.18301758 -195.09228516 401.76025391 C-191.80557445 404.109143 -188.65824783 406.26409765 -185 408 C-184.74814941 407.17411377 -184.49629883 406.34822754 -184.23681641 405.49731445 C-182.82863326 401.51543062 -181.07967587 397.82459413 -179.2109375 394.04296875 C-178.83569946 393.27586075 -178.46046143 392.50875275 -178.07385254 391.71839905 C-176.84426839 389.20643396 -175.60958208 386.69701191 -174.375 384.1875 C-173.51144936 382.42501636 -172.64833631 380.66231826 -171.78564453 378.89941406 C-170.46736232 376.20570107 -169.14879384 373.5121323 -167.8288269 370.81924438 C-164.14550738 363.30477953 -160.48746236 355.77830073 -156.84115601 348.24581909 C-155.21409926 344.88475639 -153.5854884 341.52444685 -151.95703125 338.1640625 C-151.63390457 337.49718918 -151.31077789 336.83031586 -150.9778595 336.14323425 C-147.17774658 328.3013916 -143.37028762 320.46311815 -139.5625 312.625 C-139.20992126 311.89921753 -138.85734253 311.17343506 -138.49407959 310.42565918 C-136.70982669 306.75281468 -134.92549226 303.08000981 -133.14111328 299.40722656 C-129.94613185 292.83089737 -126.75192152 286.25419367 -123.55764771 279.67752075 C-122.50715213 277.51472504 -121.45658926 275.35196203 -120.40600586 273.18920898 C-117.0876574 266.35787152 -113.76982138 259.52628637 -110.45355225 252.69393921 C-108.88791303 249.46839956 -107.32201818 246.24298405 -105.75610352 243.01757812 C-105.01004463 241.48069359 -104.26411085 239.94374831 -103.51831055 238.40673828 C-102.48387854 236.27491089 -101.44901458 234.14329369 -100.4140625 232.01171875 C-100.11170685 231.388311 -99.8093512 230.76490326 -99.49783325 230.12260437 C-98.13333372 227.31327703 -96.75083938 224.52187611 -95.30737305 221.75195312 C-93.76858631 218.51288607 -93.60148303 216.54914522 -94 213 C-94.94529566 210.28775701 -94.94529566 210.28775701 -96.3125 207.6875 C-106.39087138 186.50583813 -106.36652985 163.61661142 -98.8671875 141.6875 C-89.95304449 119.01842108 -72.68106412 100.72386621 -50.28710938 90.88378906 C-49.48253296 90.52931702 -48.67795654 90.17484497 -47.84899902 89.80963135 C-47.23882935 89.542453 -46.62865967 89.27527466 -46 89 C-46.00079559 88.13715393 -46.00159119 87.27430786 -46.00241089 86.38531494 C-46.00462954 78.20657707 -45.97793658 70.02853425 -45.9197216 61.84999466 C-45.89079463 57.64642959 -45.87258781 53.44341674 -45.87988281 49.23974609 C-45.88652752 45.17387686 -45.86370362 41.10909387 -45.82144547 37.0434494 C-45.81040474 35.50156274 -45.80953148 33.95956468 -45.81957626 32.4176712 C-45.88122181 21.55168249 -44.56737828 12.16467206 -36.96188354 3.7432251 C-27.01916144 -5.7092222 -11.75492215 -7.78272842 0 0 Z " fill="#4285F3" transform="translate(615,198)"/>
<path d="M0 0 C2.89575195 0.33740234 2.89575195 0.33740234 4.83325195 1.39990234 C6.54758461 4.52603836 5.62565882 6.92755873 4.89575195 10.33740234 C3.22851562 13.41674805 3.22851562 13.41674805 1.0637207 16.51318359 C0.48118027 17.35863991 0.48118027 17.35863991 -0.11312866 18.22117615 C-1.36937334 20.03914902 -2.64282158 21.84428828 -3.91674805 23.64990234 C-4.78376528 24.89862258 -5.64940021 26.14830369 -6.51367188 27.39892578 C-8.23339539 29.88586959 -9.95839961 32.36900729 -11.68725586 34.84960938 C-14.95559508 39.55100449 -18.13067748 44.31342974 -21.29174805 49.08740234 C-22.03871948 50.21142456 -22.03871948 50.21142456 -22.80078125 51.3581543 C-23.90319322 53.01706943 -25.00395553 54.67708071 -26.10424805 56.33740234 C-23.52089756 58.93018112 -20.92827007 61.5089563 -18.30737305 64.06396484 C-11.75651744 70.46826641 -5.63653171 77.0118957 -0.10424805 84.33740234 C0.31147461 84.88783203 0.72719727 85.43826172 1.15551758 86.00537109 C22.80392605 115.06234602 37.41557734 151.71334071 36.89575195 188.33740234 C37.99765114 188.3240107 37.99765114 188.3240107 39.12181091 188.31034851 C46.20386386 188.26172417 53.18644518 188.53097095 60.2434082 189.10693359 C61.26252792 189.18860275 62.28164764 189.27027191 63.33164978 189.35441589 C65.46025647 189.52740267 67.58864042 189.70315144 69.71679688 189.8815918 C72.98059899 190.15175211 76.24558157 190.40191091 79.51098633 190.65185547 C81.58856156 190.82315765 83.66603984 190.99564067 85.7434082 191.16943359 C87.20581688 191.27745049 87.20581688 191.27745049 88.69776917 191.38764954 C89.59978561 191.46750595 90.50180206 191.54736237 91.43115234 191.62963867 C92.223246 191.69403641 93.01533966 191.75843414 93.83143616 191.82478333 C96.36209754 192.45320712 97.33141882 193.27165702 98.89575195 195.33740234 C99.53824944 200.4773822 99.53824944 200.4773822 97.6496582 203.00537109 C92.0426562 207.26369555 80.25014761 203.91785017 73.53369141 203.19458008 C65.41738915 202.33853749 57.28742324 201.75840344 49.14575195 201.21240234 C47.84138184 201.12490723 46.53701172 201.03741211 45.19311523 200.94726562 C42.09414235 200.74160539 38.99504787 200.53812726 35.89575195 200.33740234 C35.91387939 201.07603516 35.93200684 201.81466797 35.95068359 202.57568359 C36.4586545 239.12636721 19.57065915 275.16687127 -4.10424805 302.33740234 C-4.9344043 303.30162109 -5.76456055 304.26583984 -6.61987305 305.25927734 C-15.69240639 315.59930933 -25.93104727 324.40397 -37.29174805 332.14990234 C-37.92757812 332.58898926 -38.5634082 333.02807617 -39.21850586 333.48046875 C-41.0222168 334.66943359 -41.0222168 334.66943359 -44.10424805 336.33740234 C-47.10424805 335.33740234 -47.10424805 335.33740234 -48.19726562 333.64306641 C-48.54426514 332.88735352 -48.89126465 332.13164063 -49.2487793 331.35302734 C-49.66691895 330.46067383 -50.08505859 329.56832031 -50.51586914 328.64892578 C-50.97815918 327.63862305 -51.44044922 326.62832031 -51.91674805 325.58740234 C-52.98605647 323.30507045 -54.05788611 321.02391888 -55.1315918 318.74365234 C-55.43027161 318.10707703 -55.72895142 317.47050171 -56.03668213 316.81463623 C-60.10157113 308.17373555 -64.3270917 299.61068047 -68.53240967 291.03753662 C-70.94883636 286.11039111 -73.36083619 281.18108153 -75.7722168 276.25146484 C-76.238797 275.29764923 -76.7053772 274.34383362 -77.18609619 273.3611145 C-81.45995342 264.61909926 -85.69379723 255.85835673 -89.91503906 247.09082031 C-94.71989353 237.11713956 -99.56502835 227.16335255 -104.41674805 217.21240234 C-106.04568788 213.87127288 -107.67461434 210.5301369 -109.3034668 207.18896484 C-109.70608231 206.36310883 -110.10869781 205.53725281 -110.52351379 204.68637085 C-114.59966132 196.32372315 -118.66580384 187.95622854 -122.72924805 179.58740234 C-123.07605621 178.87316101 -123.42286438 178.15891968 -123.78018188 177.42303467 C-125.52408794 173.83140836 -127.26782444 170.23969976 -129.01147461 166.64794922 C-131.1225984 162.29938453 -133.23441729 157.95115766 -135.34643555 153.60302734 C-135.69746338 152.88034668 -136.04849121 152.15766602 -136.41015625 151.41308594 C-137.47484225 149.22118593 -138.53954234 147.02929277 -139.60424805 144.83740234 C-147.42268036 128.74173688 -147.42268036 128.74173688 -151.24032593 120.87774658 C-152.9864696 117.28088568 -154.73285003 113.68413976 -156.47924805 110.08740234 C-156.82465637 109.37596069 -157.1700647 108.66451904 -157.52593994 107.93151855 C-161.68013613 99.37573467 -165.84075364 90.82312037 -170.01049805 82.27490234 C-178.43987794 64.99290535 -186.86037418 47.70892973 -195.10424805 30.33740234 C-190.01370091 26.94370425 -183.96836382 25.91330345 -178.10424805 24.33740234 C-177.45665527 24.15886719 -176.8090625 23.98033203 -176.1418457 23.79638672 C-131.77716816 11.61133171 -86.86844869 19.89752442 -47.22729492 42.28027344 C-44.63035633 43.77929166 -42.18169461 45.27482873 -39.84643555 47.16162109 C-39.27151367 47.54962891 -38.6965918 47.93763672 -38.10424805 48.33740234 C-34.81161291 47.2398573 -34.49097284 46.84814572 -32.6875 44.09375 C-32.00582512 43.0659996 -32.00582512 43.0659996 -31.31037903 42.01748657 C-30.82598862 41.2696994 -30.34159821 40.52191223 -29.8425293 39.75146484 C-29.07829903 38.59413345 -29.07829903 38.59413345 -28.29862976 37.41342163 C-26.6636478 34.93470839 -25.03973748 32.44898097 -23.41674805 29.96240234 C-19.78836862 24.4315162 -16.14728013 18.90946892 -12.47686768 13.40637207 C-11.60548737 12.09292773 -10.74041218 10.7752611 -9.88397217 9.45202637 C-8.84459912 7.8468585 -7.7782557 6.25924174 -6.7097168 4.67333984 C-6.14792725 3.82046387 -5.5861377 2.96758789 -5.00732422 2.08886719 C-3.10424805 0.33740234 -3.10424805 0.33740234 0 0 Z " fill="#3DDC84" transform="translate(908.104248046875,461.66259765625)"/>
<path d="M0 0 C6.43942388 4.42197232 10.58373048 9.52944266 13 17 C13.65916094 22.66091975 13.58526488 28.25466237 13.48828125 33.9453125 C13.47893798 35.567687 13.47182903 37.19007575 13.46684265 38.81246948 C13.44789157 43.05094404 13.3988966 47.28854093 13.34332275 51.52667236 C13.29187087 55.86401502 13.26927365 60.20150163 13.24414062 64.5390625 C13.19076353 73.02644125 13.10559883 81.51311098 13 90 C13.92651367 90.13720459 14.85302734 90.27440918 15.80761719 90.41577148 C25.81978466 92.24806858 34.4491245 99.55250947 42 106 C42.82886719 106.63808594 43.65773438 107.27617187 44.51171875 107.93359375 C59.7270871 120.56927641 69.91801637 142.68663969 72 162 C74.13329042 186.38869862 67.49674362 208.93424077 52.31640625 228.25 C38.00797559 245.23673724 18.02233516 256.65009168 -4 260 C-17.69382241 261.05884806 -31.03518239 260.80646897 -44 256 C-45.01578125 255.649375 -46.0315625 255.29875 -47.078125 254.9375 C-69.35123777 246.54135278 -86.62871095 229.59514352 -96.39013672 208.07446289 C-97.27763915 206.05656501 -98.14571862 204.03215418 -99 202 C-99.3609375 201.1440625 -99.721875 200.288125 -100.09375 199.40625 C-107.66514836 179.11490238 -105.1616858 155.23909574 -96.39453125 135.82421875 C-86.54197754 115.87072762 -70.85643319 99.92210925 -50.28710938 90.88378906 C-49.48253296 90.52931702 -48.67795654 90.17484497 -47.84899902 89.80963135 C-46.93374451 89.40886383 -46.93374451 89.40886383 -46 89 C-46.00079559 88.13715393 -46.00159119 87.27430786 -46.00241089 86.38531494 C-46.00462954 78.20657707 -45.97793658 70.02853425 -45.9197216 61.84999466 C-45.89079463 57.64642959 -45.87258781 53.44341674 -45.87988281 49.23974609 C-45.88652752 45.17387686 -45.86370362 41.10909387 -45.82144547 37.0434494 C-45.81040474 35.50156274 -45.80953148 33.95956468 -45.81957626 32.4176712 C-45.88122181 21.55168249 -44.56737828 12.16467206 -36.96188354 3.7432251 C-27.01916144 -5.7092222 -11.75492215 -7.78272842 0 0 Z " fill="#083143" transform="translate(615,198)"/>
<path d="M0 0 C3 1 3 1 4.59960938 3.70751953 C5.19143469 4.9276056 5.77193802 6.15321977 6.34375 7.3828125 C6.82552452 8.38616638 6.82552452 8.38616638 7.31703186 9.40979004 C8.38734039 11.64387089 9.44339127 13.88441149 10.5 16.125 C11.25400212 17.70415085 12.00915047 19.28275486 12.76538086 20.86083984 C14.36409835 24.19842193 15.95840531 27.53806176 17.55029297 30.87890625 C21.10891275 38.33361181 24.73903702 45.75338356 28.36578369 53.17510986 C30.37059776 57.27931918 32.37090751 61.3857213 34.37109375 65.4921875 C34.76216309 66.29498138 35.15323242 67.09777527 35.55615234 67.92489624 C39.42166529 75.8621245 43.27512578 83.80517688 47.125 91.75 C47.44915894 92.41894287 47.77331787 93.08788574 48.1072998 93.77709961 C49.41521326 96.47620616 50.72310768 99.17532194 52.03097534 101.87445068 C55.08551007 108.17769361 58.14303114 114.47948337 61.203125 120.7800293 C62.60218357 123.6607747 63.99912768 126.54253135 65.39453125 129.42504883 C68.88688835 136.63301434 72.40312567 143.82780502 75.97032166 150.99908447 C77.75986162 154.59889909 79.54075251 158.20296205 81.32113647 161.80731201 C82.18579954 163.55153322 83.05475708 165.29363254 83.9281311 167.0335083 C85.14250762 169.45337915 86.34220314 171.88002281 87.5390625 174.30859375 C87.90582596 175.0298494 88.27258942 175.75110504 88.65046692 176.49421692 C91.05765605 181.42944688 91.05765605 181.42944688 90.78457642 184.13179016 C90 186 90 186 86.80761719 187.37011719 C85.39316446 187.78277715 83.9722102 188.17353287 82.546875 188.546875 C81.78614685 188.75729431 81.0254187 188.96771362 80.24163818 189.18450928 C72.73401509 191.19602634 65.14456324 192.63523227 57.47802734 193.88574219 C55.23437806 194.25255401 52.99421986 194.63682394 50.75390625 195.0234375 C11.25869468 201.73155796 -52.54267104 205.75994619 -89 185 C-87.34863239 179.40745232 -84.8447838 174.35883663 -82.265625 169.15234375 C-81.7960437 168.19654922 -81.3264624 167.2407547 -80.84265137 166.2559967 C-79.83713402 164.21030148 -78.82992039 162.16543932 -77.82116699 160.12133789 C-75.70341982 155.82990118 -73.59381924 151.53447909 -71.48394775 147.23916626 C-70.434012 145.10174338 -69.38367972 142.96451523 -68.33294678 140.82748413 C-64.43712359 132.90148562 -60.57711532 124.95939243 -56.75 117 C-51.4083113 105.90029225 -46.02391871 94.82195943 -40.625 83.75 C-27.02691236 55.8606526 -13.50949362 27.93234649 0 0 Z " fill="#FEFEFE" transform="translate(598,459)"/>
<path d="M0 0 C0.33 0 0.66 0 1 0 C1.14695312 1.05316406 1.29390625 2.10632813 1.4453125 3.19140625 C6.34675483 35.72710446 26.16267845 57.3934453 51.95385742 76.47558594 C89.73064882 104.49675871 109.70481016 139.31288796 124.38725281 183.33328247 C126.54686818 189.8014381 128.77255297 196.2355777 131.15625 202.625 C131.39220383 203.26080994 131.62815765 203.89661987 131.8712616 204.55169678 C140.33686285 226.97863754 153.99672575 243.90577461 175.41796875 254.7265625 C189.4595222 261.02829535 204.34735371 264.47105949 219.3807373 267.45239258 C253.63742368 274.28618966 283.47376971 284.97327964 311 307 C311.55800293 307.44085937 312.11600586 307.88171875 312.69091797 308.3359375 C320.61292134 314.64867185 327.71918765 321.69217227 334.80834961 328.90805054 C356.31894302 350.78044158 378.63457049 367.2891622 410.625 368.3125 C426.68329393 367.93515106 441.74909719 363.55113669 457.00537109 358.90527344 C465.28554355 356.40218527 473.60929318 354.10230393 482 352 C482.83015625 351.78682129 483.6603125 351.57364258 484.515625 351.35400391 C519.19481169 342.75918189 554.13124318 348.70734511 587.671875 358.8125 C615.30477325 367.1265714 643.89626477 373.47508649 671 360 C671.91007813 359.55785156 672.82015625 359.11570312 673.7578125 358.66015625 C690.55050111 350.02459986 703.76856851 336.42056954 716.86206055 323.1015625 C746.99101423 292.5905064 782.42326488 276.42877368 824 268 C855.41710531 261.58525342 885.12948289 253.93583564 903.89888 225.73728943 C911.5976277 213.59060874 916.08060369 199.97768186 920.625 186.4375 C921.88247167 182.72596155 923.14614602 179.01657654 924.4140625 175.30859375 C924.71841721 174.41822922 925.02277191 173.52786469 925.33634949 172.61051941 C928.95244011 162.11501311 932.84682349 151.69463931 937.9375 141.8125 C938.27467041 141.15088867 938.61184082 140.48927734 938.95922852 139.80761719 C947.0296476 124.12491682 956.8526836 110.71834409 969 98 C969.80179688 97.14535156 970.60359375 96.29070312 971.4296875 95.41015625 C978.07005713 88.51941203 985.41384914 82.78814778 993 77 C1019.97832907 56.32344557 1040.14650042 34.78341368 1045 0 C1045.33 0 1045.66 0 1046 0 C1046.87582009 23.84176918 1039.33196227 45.40312066 1023.14111328 63.02294922 C1014.37858651 72.28798648 1005.29880351 80.50074824 995 88 C956.80180219 116.78260998 936.03486243 152.42629297 921.51953125 197.6171875 C915.86924527 215.1887749 910.30460028 231.82558301 898 246 C897.5565625 246.58523438 897.113125 247.17046875 896.65625 247.7734375 C879.22483387 270.17078032 847.15327205 275.71186742 821.09887695 280.75512695 C776.6539162 289.46445219 743.06056932 309.1264963 711.72241211 341.35083008 C706.57442649 346.60344353 701.26182271 351.41406408 695.50756836 355.99707031 C693.04064435 357.96753517 690.64418406 360.00470423 688.25 362.0625 C670.38338642 376.27071175 648.08517685 382.04322549 625.5078125 379.53515625 C612.65477866 377.91075815 600.4154308 374.60851665 588 371 C568.1931879 365.18545058 568.1931879 365.18545058 548 361 C546.87722656 360.81824219 545.75445313 360.63648438 544.59765625 360.44921875 C514.77563261 356.89855514 486.3780094 362.19502252 458 371 C429.45353847 379.75504866 399.91026671 385.4377921 372 371 C361.08540445 365.16158336 352.07553026 357.32703292 343 349 C342.07316406 348.16597656 341.14632813 347.33195312 340.19140625 346.47265625 C335.28344959 342.03398629 330.50494309 337.53267498 325.88208008 332.79663086 C298.64560715 304.94708184 264.71334828 288.9016323 226.8359375 281.0546875 C225.60772026 280.80007248 225.60772026 280.80007248 224.35469055 280.54031372 C220.250084 279.69450149 216.14268826 278.86762563 212.02905273 278.06689453 C198.05517263 275.29627849 183.74647189 271.75482057 171.1875 264.8125 C170.49720703 264.43649658 169.80691406 264.06049316 169.09570312 263.6730957 C143.27993656 249.06978638 132.68049394 223.70045285 124 196.6875 C109.62552409 152.19183293 89.68923426 117.66478191 52.3125 88.83398438 C44.94620144 83.14569955 37.73201496 77.44126349 31 71 C29.55753906 69.6696875 29.55753906 69.6696875 28.0859375 68.3125 C14.3312698 55.37375009 3.81246094 38.99324269 1 20 C0.89042969 19.2884375 0.78085938 18.576875 0.66796875 17.84375 C-0.11691943 11.89953016 -0.10071362 5.98686516 0 0 Z " fill="#010101" transform="translate(77,781)"/>
<path d="M0 0 C10.61526242 6.59188039 18.41145639 17.25478813 21.83691406 29.28979492 C24.94260153 43.40524091 21.96341038 57.22445254 14.43359375 69.30859375 C7.12221875 79.45915752 -2.4334746 86.45776281 -14.69140625 89.43359375 C-18.30647452 89.87628297 -21.8642564 89.95828222 -25.50390625 89.93359375 C-26.95639771 89.92610107 -26.95639771 89.92610107 -28.43823242 89.91845703 C-36.06719558 89.73280634 -42.08161427 88.39318387 -48.69140625 84.43359375 C-49.89603516 83.76457031 -49.89603516 83.76457031 -51.125 83.08203125 C-62.16549681 76.41677348 -69.29421961 65.79200457 -73.06640625 53.55859375 C-75.71763704 40.57297354 -73.83582369 26.6108697 -66.69140625 15.43359375 C-49.97344037 -6.21860672 -24.88122858 -13.41595845 0 0 Z " fill="#FDFEFE" transform="translate(624.69140625,328.56640625)"/>
<path d="M0 0 C6.4405519 4.42274693 10.5743178 9.53244488 13 17 C13.65760135 22.58847407 13.58540995 28.10813195 13.48828125 33.7265625 C13.47893763 35.32651659 13.47182885 36.92648514 13.46684265 38.52645874 C13.44789427 42.70575548 13.39890187 46.88416169 13.34332275 51.06311035 C13.29186485 55.34012816 13.26927239 59.61729207 13.24414062 63.89453125 C13.19076835 72.2634262 13.10560717 80.63160184 13 89 C12.38792694 88.8626947 11.77585388 88.7253894 11.14523315 88.58392334 C10.33917633 88.403797 9.53311951 88.22367065 8.70263672 88.03808594 C7.90493866 87.85953064 7.1072406 87.68097534 6.28536987 87.49700928 C-1.18144288 85.87316919 -8.51453916 85.78352626 -16.125 85.75 C-17.27226563 85.729375 -18.41953125 85.70875 -19.6015625 85.6875 C-26.85876806 85.65480988 -33.33031791 86.49979444 -40.35107422 88.35253906 C-43 89 -43 89 -46 89 C-46.00834494 79.94965179 -45.98414054 70.90011916 -45.9197216 61.84999466 C-45.89079463 57.64642959 -45.87258781 53.44341674 -45.87988281 49.23974609 C-45.88652752 45.17387686 -45.86370362 41.10909387 -45.82144547 37.0434494 C-45.81040474 35.50156274 -45.80953148 33.95956468 -45.81957626 32.4176712 C-45.88122181 21.55168249 -44.56737828 12.16467206 -36.96188354 3.7432251 C-27.01916144 -5.7092222 -11.75492215 -7.78272842 0 0 Z " fill="#4285F3" transform="translate(615,198)"/>
<path d="M0 0 C3.5677811 2.35149209 5.84221079 4.99692157 7.75 8.8125 C8.15454634 14.07160247 7.54068106 17.32747687 4.75 21.8125 C1.96954494 25.02740116 0.01976671 26.54877472 -4.30078125 27.05078125 C-9.81280683 27.23165946 -12.95056765 26.60009517 -17.25 22.8125 C-20.63570467 18.97536804 -20.76291172 15.17848538 -20.6015625 10.25 C-19.92295213 5.54496813 -17.54613547 2.89261289 -14 -0.0625 C-9.0209333 -2.09939092 -4.91636794 -1.79636521 0 0 Z " fill="#FBFEFC" transform="translate(816.25,534.1875)"/>
<path d="M0 0 C3.96214722 1.36701389 7.07322252 3.04426073 10 6.0625 C11.5941199 10.7452272 11.8775262 15.12485446 11 20 C8.75897949 24.03101802 6.39019909 26.5366003 2 28 C-2.48820411 28.39557053 -6.62085015 28.50968581 -10.875 26.9375 C-14.88825306 23.2783575 -16.74663366 19.77356435 -17.5 14.5 C-16.6765161 8.73561273 -14.56952486 5.36025487 -10.1875 1.5625 C-6.32469345 -0.33103262 -4.26134893 -0.58777227 0 0 Z " fill="#FBFEFC" transform="translate(881,674)"/>
<path d="M0 0 C0.33 0 0.66 0 1 0 C2.27166536 21.80670604 -5.99361586 41.89678354 -14.3046875 61.5703125 C-25.17371388 87.37930968 -33.25268493 111.9050129 -35 140 C-35.33 140 -35.66 140 -36 140 C-37.7225563 108.75474267 -27.98676672 79.45708065 -15.68359375 51.203125 C-8.4242426 34.52910092 -2.40799 18.09499281 0 0 Z " fill="#050505" transform="translate(1149,556)"/>
<path d="M0 0 C0.33 0 0.66 0 1 0 C1.21914063 1.23492188 1.43828125 2.46984375 1.6640625 3.7421875 C4.72476543 20.37637049 9.6716115 35.15679747 16.51300049 50.61431885 C27.97907092 76.52846613 37.41217629 103.86214635 37.0625 132.5625 C37.05798828 133.28501953 37.05347656 134.00753906 37.04882812 134.75195312 C37.03724279 136.50133944 37.01931762 138.25068199 37 140 C36.67 140 36.34 140 36 140 C35.91363281 138.81148437 35.82726562 137.62296875 35.73828125 136.3984375 C33.49816388 108.83598834 25.11211346 84.27480228 14.11352539 59.13745117 C5.80368215 40.05204617 -0.34769392 21.01616567 0 0 Z " fill="#060606" transform="translate(50,556)"/>
</svg>
