<?xml version="1.0" encoding="UTF-8"?>
<svg version="1.1" xmlns="http://www.w3.org/2000/svg" width="1867" height="2157">
<path d="M0 0 C2.3581543 1.04711914 2.3581543 1.04711914 4.82421875 2.53515625 C6.22293213 3.36648071 6.22293213 3.36648071 7.64990234 4.21459961 C8.65230957 4.82440674 9.6547168 5.43421387 10.6875 6.0625 C12.86018566 7.35759561 15.03338004 8.65183809 17.20703125 9.9453125 C18.89046631 10.95319824 18.89046631 10.95319824 20.60791016 11.98144531 C25.99827466 15.18912731 31.43640847 18.31252697 36.875 21.4375 C39.05739912 22.69512606 41.23969016 23.95293967 43.421875 25.2109375 C45.6145405 26.47403269 47.80724889 27.73705344 50 29 C63.67554314 36.87662589 77.33960958 44.77120092 90.96582031 52.73291016 C102.61659185 59.53587623 114.30903744 66.26642186 126 73 C139.67554314 80.87662589 153.33960958 88.77120092 166.96582031 96.73291016 C177.52620282 102.89919054 188.12126766 109.0049595 198.71777344 115.10888672 C205.22871257 118.86028024 211.73663194 122.61690994 218.24511719 126.37255859 C223.68585336 129.51182246 229.12731477 132.64981497 234.5703125 135.78515625 C246.0544882 142.40222892 257.52196894 149.04633977 268.96582031 155.73291016 C280.61659185 162.53587623 292.30903744 169.26642186 304 176 C317.67554314 183.87662589 331.33960958 191.77120092 344.96582031 199.73291016 C355.52620282 205.89919054 366.12126766 212.0049595 376.71777344 218.10888672 C383.22871257 221.86028024 389.73663194 225.61690994 396.24511719 229.37255859 C401.68585336 232.51182246 407.12731477 235.64981497 412.5703125 238.78515625 C424.0544882 245.40222892 435.52196894 252.04633977 446.96582031 258.73291016 C458.61659185 265.53587623 470.30903744 272.26642186 482 279 C495.67554314 286.87662589 509.33960958 294.77120092 522.96582031 302.73291016 C534.61659185 309.53587623 546.30903744 316.26642186 558 323 C571.67554314 330.87662589 585.33960958 338.77120092 598.96582031 346.73291016 C609.52620282 352.89919054 620.12126766 359.0049595 630.71777344 365.10888672 C637.22871257 368.86028024 643.73663194 372.61690994 650.24511719 376.37255859 C655.68585336 379.51182246 661.12731477 382.64981497 666.5703125 385.78515625 C678.0544882 392.40222892 689.52196894 399.04633977 700.96582031 405.73291016 C712.61659185 412.53587623 724.30903744 419.26642186 736 426 C749.67554314 433.87662589 763.33960958 441.77120092 776.96582031 449.73291016 C787.52620282 455.89919054 798.12126766 462.0049595 808.71777344 468.10888672 C815.22871257 471.86028024 821.73663194 475.61690994 828.24511719 479.37255859 C833.68585336 482.51182246 839.12731477 485.64981497 844.5703125 488.78515625 C856.04795062 495.39846202 867.5096644 502.03751247 878.94604492 508.72192383 C887.43858259 513.68202469 895.95546528 518.5993245 904.48242188 523.5 C906.46118906 524.638785 908.43024635 525.79464504 910.38815668 526.96892696 C912.95586132 528.46826334 915.5594039 529.71857953 918.27819634 530.9202824 C929.48113884 536.16616559 929.48113884 536.16616559 931.98729538 540.84205885 C933.5730171 546.1333737 933.28104139 551.59502366 933.15326595 557.06092548 C933.17253127 558.91059767 933.19923607 560.76020461 933.23267952 562.60967478 C933.30308694 567.70036987 933.26760222 572.7856808 933.21495523 577.87638794 C933.17636799 583.41079294 933.23616329 588.94427617 933.2834211 594.47849292 C933.3525718 604.18030994 933.35828409 613.88056816 933.32257462 623.58254242 C933.27209463 637.3342999 933.30761789 651.08477443 933.367621 664.83643282 C933.48613075 692.0245778 933.49517963 719.21199419 933.46153384 746.40032675 C933.4569207 750.15663392 933.45247156 753.91294125 933.4481914 757.66924882 C933.44733985 758.41534853 933.4464883 759.16144824 933.44561094 759.93015703 C933.42748718 776.46633391 933.44337675 793.00242605 933.46641329 809.53859027 C933.46956445 811.80188473 933.47264096 814.06517929 933.47569447 816.32847388 C933.48389019 822.39563785 933.49216208 828.4628017 933.50057903 834.52996536 C933.55894238 876.8837631 933.58322447 919.2374802 933.53610134 961.5912981 C933.5347783 962.78882732 933.5347783 962.78882732 933.53342853 964.01054905 C933.52356115 972.91300842 933.51317261 981.81546717 933.50257873 990.71792571 C933.50162257 991.52168489 933.50066642 992.32544407 933.49968129 993.15355959 C933.49581154 996.40402545 933.49194159 999.65449132 933.48803742 1002.90495714 C933.42636779 1054.31797319 933.4656494 1105.72993429 933.59350586 1157.14282227 C933.62566531 1170.09750347 933.65754525 1183.05218517 933.68769741 1196.00687122 C933.69048703 1197.20337947 933.69048703 1197.20337947 933.69333301 1198.42405961 C933.75028365 1223.00860068 933.78008073 1247.59305366 933.78118229 1272.17766094 C933.78121903 1272.94950214 933.78125577 1273.72134333 933.78129363 1274.51657365 C933.78181012 1291.46022843 933.77551227 1308.40387534 933.76300969 1325.34752533 C933.75857758 1331.41021855 933.75456039 1337.47291204 933.75070751 1343.53560565 C933.74973927 1345.04384464 933.74874349 1346.5520836 933.74772004 1348.06032255 C933.73156974 1372.09184806 933.77719399 1396.12275246 933.85269085 1420.15414884 C933.93025015 1445.03084717 933.92596259 1469.90634362 933.82875466 1494.78298859 C933.77439625 1509.12741416 933.78203438 1523.46889585 933.87622045 1537.8131383 C933.93302528 1547.39113678 933.91005389 1556.9667873 933.82181073 1566.54454253 C933.77373653 1572.00582757 933.7604565 1577.46110207 933.84396928 1582.92209551 C934.29448404 1614.50952264 934.29448404 1614.50952264 928.82166429 1621.96913479 C923.69013763 1626.55972546 918.09692287 1629.09419234 911.57775796 1631.14060327 C908.04565102 1632.31816967 905.21741721 1634.03627454 902.078125 1636.0234375 C900.13611511 1637.14183867 898.19341594 1638.25904388 896.25 1639.375 C894.04685608 1640.64319629 891.84373165 1641.91142645 889.640625 1643.1796875 C887.99416992 1644.12666504 887.99416992 1644.12666504 886.31445312 1645.09277344 C880.87349435 1648.22364924 875.43694752 1651.36216542 870 1654.5 C867.83335502 1655.75003758 865.66668834 1657.00003756 863.5 1658.25 C862.4275 1658.86875 861.355 1659.4875 860.25 1660.125 C746.5 1725.75 746.5 1725.75 743.24951172 1727.62524414 C741.08442929 1728.87435518 738.91939018 1730.12354129 736.75439453 1731.37280273 C731.31384294 1734.51202309 725.87252784 1737.64990563 720.4296875 1740.78515625 C709.97793801 1746.80747329 699.53700452 1752.84669337 689.125 1758.9375 C679.85500223 1764.35921178 670.54168248 1769.70204915 661.21154785 1775.01922607 C652.0871716 1780.22045129 642.99867226 1785.48027878 633.93310547 1790.78344727 C623.40915375 1796.93766742 612.84619863 1803.02369996 602.28222656 1809.10888672 C596.85340058 1812.23680148 591.42680719 1815.36858448 586 1818.5 C583.83334417 1819.75001879 581.6666775 1821.00001878 579.5 1822.25 C578.4275 1822.86875 577.355 1823.4875 576.25 1824.125 C462.5 1889.75 462.5 1889.75 459.24951172 1891.62524414 C457.08442929 1892.87435518 454.91939018 1894.12354129 452.75439453 1895.37280273 C447.31384294 1898.51202309 441.87252784 1901.64990563 436.4296875 1904.78515625 C425.97793801 1910.80747329 415.53700452 1916.84669337 405.125 1922.9375 C395.85500223 1928.35921178 386.54168248 1933.70204915 377.21154785 1939.01922607 C368.0871716 1944.22045129 358.99867226 1949.48027878 349.93310547 1954.78344727 C339.40915375 1960.93766742 328.84619863 1967.02369996 318.28222656 1973.10888672 C312.85340058 1976.23680148 307.42680719 1979.36858448 302 1982.5 C299.83334417 1983.75001879 297.6666775 1985.00001878 295.5 1986.25 C294.4275 1986.86875 293.355 1987.4875 292.25 1988.125 C178.5 2053.75 178.5 2053.75 175.24951172 2055.62524414 C173.08442929 2056.87435518 170.91939018 2058.12354129 168.75439453 2059.37280273 C163.31384294 2062.51202309 157.87252784 2065.64990563 152.4296875 2068.78515625 C141.97793801 2074.80747329 131.53700452 2080.84669337 121.125 2086.9375 C111.85500223 2092.35921178 102.54168248 2097.70204915 93.21154785 2103.01922607 C84.0871716 2108.22045129 74.99867226 2113.48027878 65.93310547 2118.78344727 C54.31918267 2125.57506316 42.65805025 2132.28451772 31 2139 C26.8036869 2141.41783662 22.60779716 2143.83640662 18.41229248 2146.25564575 C16.72901778 2147.22606473 15.04542113 2148.19592519 13.36181641 2149.16577148 C11.82726807 2150.05051147 11.82726807 2150.05051147 10.26171875 2150.953125 C8.91533325 2151.72897949 8.91533325 2151.72897949 7.54174805 2152.52050781 C5.79422532 2153.53769998 4.06996282 2154.59558947 2.3671875 2155.68603516 C-0.30041723 2157.16675387 -1.96639909 2157.30658161 -4.95068359 2156.70410156 C-9.5749999 2155.11528476 -13.65833979 2152.40980513 -17.8125 2149.875 C-19.96694207 2148.58899593 -22.12190794 2147.30386906 -24.27734375 2146.01953125 C-25.38706543 2145.3538916 -26.49678711 2144.68825195 -27.64013672 2144.00244141 C-33.01808459 2140.79724388 -38.44650634 2137.68105758 -43.875 2134.5625 C-46.06002503 2133.30360964 -48.2449202 2132.04449385 -50.4296875 2130.78515625 C-51.51475586 2130.16012207 -52.59982422 2129.53508789 -53.71777344 2128.89111328 C-60.22871257 2125.13971976 -66.73663194 2121.38309006 -73.24511719 2117.62744141 C-78.68585336 2114.48817754 -84.12731477 2111.35018503 -89.5703125 2108.21484375 C-101.0544882 2101.59777108 -112.52196894 2094.95366023 -123.96582031 2088.26708984 C-134.52620282 2082.10080946 -145.12126766 2075.9950405 -155.71777344 2069.89111328 C-161.14659942 2066.76319852 -166.57319281 2063.63141552 -172 2060.5 C-174.16665583 2059.24998121 -176.3333225 2057.99998122 -178.5 2056.75 C-226.16666667 2029.25 -273.83333333 2001.75 -321.5 1974.25 C-322.57266113 1973.63116943 -323.64532227 1973.01233887 -324.75048828 1972.37475586 C-326.91557071 1971.12564482 -329.08060982 1969.87645871 -331.24560547 1968.62719727 C-336.68615706 1965.48797691 -342.12747216 1962.35009437 -347.5703125 1959.21484375 C-358.02206199 1953.19252671 -368.46299548 1947.15330663 -378.875 1941.0625 C-387.55262241 1935.98724877 -396.26605568 1930.97741233 -405 1926 C-414.72115617 1920.4599827 -424.40894658 1914.86625191 -434.06689453 1909.21655273 C-444.59084625 1903.06233258 -455.15380137 1896.97630004 -465.71777344 1890.89111328 C-471.14659942 1887.76319852 -476.57319281 1884.63141552 -482 1881.5 C-484.16665583 1880.24998121 -486.3333225 1878.99998122 -488.5 1877.75 C-527.5 1855.25 -566.5 1832.75 -605.5 1810.25 C-606.57266113 1809.63116943 -607.64532227 1809.01233887 -608.75048828 1808.37475586 C-610.91557071 1807.12564482 -613.08060982 1805.87645871 -615.24560547 1804.62719727 C-620.68615706 1801.48797691 -626.12747216 1798.35009437 -631.5703125 1795.21484375 C-642.02206199 1789.19252671 -652.46299548 1783.15330663 -662.875 1777.0625 C-671.55262241 1771.98724877 -680.26605568 1766.97741233 -689 1762 C-698.72115617 1756.4599827 -708.40894658 1750.86625191 -718.06689453 1745.21655273 C-728.59084625 1739.06233258 -739.15380137 1732.97630004 -749.71777344 1726.89111328 C-755.14659942 1723.76319852 -760.57319281 1720.63141552 -766 1717.5 C-768.16665583 1716.24998121 -770.3333225 1714.99998122 -772.5 1713.75 C-802.83333333 1696.25 -833.16666667 1678.75 -863.5 1661.25 C-864.57266113 1660.63116943 -865.64532227 1660.01233887 -866.75048828 1659.37475586 C-868.91557071 1658.12564482 -871.08060982 1656.87645871 -873.24560547 1655.62719727 C-878.68615706 1652.48797691 -884.12747216 1649.35009437 -889.5703125 1646.21484375 C-900.53917031 1639.89489797 -911.49900385 1633.55988113 -922.4375 1627.1875 C-923.45666504 1626.59445068 -924.47583008 1626.00140137 -925.52587891 1625.39038086 C-926.4647998 1624.84260986 -927.4037207 1624.29483887 -928.37109375 1623.73046875 C-929.6075061 1623.00960083 -929.6075061 1623.00960083 -930.86889648 1622.27416992 C-932.61029285 1621.23300282 -934.31184188 1620.12543875 -936 1619 C-936.30489852 1616.53089398 -936.41001425 1614.30982433 -936.3898555 1611.83696741 C-936.39555323 1611.08554781 -936.40125095 1610.3341282 -936.40712133 1609.55993831 C-936.42271873 1607.01056855 -936.41672771 1604.46168895 -936.41104317 1601.9122839 C-936.4178062 1600.07080919 -936.42587862 1598.2293389 -936.43515068 1596.38787511 C-936.45695366 1591.28419823 -936.45983846 1586.1806533 -936.459819 1581.07693616 C-936.46301613 1575.54085596 -936.48337388 1570.00483535 -936.50153911 1564.46878773 C-936.53483036 1553.46917256 -936.55172776 1542.46958615 -936.56366574 1531.46992945 C-936.57789902 1518.97768676 -936.60751207 1506.48549509 -936.63815369 1493.99328395 C-936.71772185 1461.48760489 -936.76436599 1428.98190414 -936.80364235 1396.47615494 C-936.81638782 1385.93664766 -936.83009063 1375.39714197 -936.8443923 1364.85763669 C-936.91911319 1309.66520411 -936.98531212 1254.47276695 -937.02196344 1199.28029468 C-937.02465558 1195.23900508 -937.02739968 1191.19771552 -937.03014665 1187.15642596 C-937.03069149 1186.3547513 -937.03123633 1185.55307663 -937.03179768 1184.7271088 C-937.03732579 1176.60483311 -937.04292335 1168.48255746 -937.04859194 1160.36028186 C-937.04972609 1158.73172453 -937.05085497 1157.10316719 -937.05197859 1155.47460985 C-937.08807136 1103.16756788 -937.17713876 1050.86082524 -937.30222393 998.55392431 C-937.39205749 960.97696585 -937.47495049 923.40006874 -937.50405693 885.82300663 C-937.5046586 885.05041434 -937.50526027 884.27782205 -937.50588017 883.48181787 C-937.51893124 866.52238787 -937.52776892 849.56295819 -937.5326597 832.60352395 C-937.53468882 825.77987765 -937.53725537 818.95623158 -937.53997421 812.13258553 C-937.5402565 811.38576757 -937.54053879 810.63894961 -937.54082963 809.86950081 C-937.55017087 785.8004385 -937.60572456 761.73175676 -937.68502412 737.66283163 C-937.76462672 713.42205873 -937.79691746 689.18171068 -937.76381616 664.94081544 C-937.74330699 649.89553123 -937.76318047 634.85164706 -937.85055276 619.80657717 C-937.90214375 610.21562755 -937.89960446 600.62569384 -937.8524497 591.03472355 C-937.82710759 585.56338455 -937.82582045 580.09488282 -937.89028408 574.623802 C-937.94844431 569.64789233 -937.93783453 564.67709711 -937.87182362 559.70132868 C-937.8602089 557.91077429 -937.87387414 556.11983693 -937.91558466 554.32973074 C-938.1981706 541.3642922 -938.1981706 541.3642922 -934.54040284 537.4300972 C-930.95740996 534.60782105 -927.0474088 532.65629243 -922.87942807 530.8472428 C-920.04573881 529.56982077 -917.42142385 527.96928575 -914.76171875 526.3671875 C-912.73774693 525.20179059 -910.71298949 524.03775716 -908.6875 522.875 C-906.42055224 521.57034843 -904.15362576 520.26565987 -901.88671875 518.9609375 C-900.74509277 518.30448242 -899.6034668 517.64802734 -898.42724609 516.97167969 C-892.94844212 513.81974773 -887.47436113 510.65963997 -882 507.5 C-875.47770839 503.7362896 -868.95486232 499.97355375 -862.4296875 496.21484375 C-851.93767906 490.16944841 -841.45518324 484.10889781 -831 478 C-819.45270484 471.25298806 -807.87097973 464.56660682 -796.28222656 457.89111328 C-790.85340062 454.76319854 -785.42677993 451.63146269 -780 448.5 C-773.47766725 444.73636081 -766.95486238 440.97355378 -760.4296875 437.21484375 C-749.93767906 431.16944841 -739.45518324 425.10889781 -729 419 C-717.45270484 412.25298806 -705.87097973 405.56660682 -694.28222656 398.89111328 C-688.85340058 395.76319852 -683.42680719 392.63141552 -678 389.5 C-675.83334417 388.24998121 -673.6666775 386.99998122 -671.5 385.75 C-670.4275 385.13125 -669.355 384.5125 -668.25 383.875 C-658.5 378.25 -658.5 378.25 -655.24951172 376.37475586 C-653.08442929 375.12564482 -650.91939018 373.87645871 -648.75439453 372.62719727 C-643.31384294 369.48797691 -637.87252784 366.35009437 -632.4296875 363.21484375 C-621.93767906 357.16944841 -611.45518324 351.10889781 -601 345 C-589.45270484 338.25298806 -577.87097973 331.56660682 -566.28222656 324.89111328 C-560.85340062 321.76319854 -555.42677993 318.63146269 -550 315.5 C-543.47766725 311.73636081 -536.95486238 307.97355378 -530.4296875 304.21484375 C-519.93767906 298.16944841 -509.45518324 292.10889781 -499 286 C-487.45270484 279.25298806 -475.87097973 272.56660682 -464.28222656 265.89111328 C-458.85340062 262.76319854 -453.42677993 259.63146269 -448 256.5 C-441.47766725 252.73636081 -434.95486238 248.97355378 -428.4296875 245.21484375 C-417.93767906 239.16944841 -407.45518324 233.10889781 -397 227 C-385.45270484 220.25298806 -373.87097973 213.56660682 -362.28222656 206.89111328 C-356.85340058 203.76319852 -351.42680719 200.63141552 -346 197.5 C-343.83334417 196.24998121 -341.6666775 194.99998122 -339.5 193.75 C-338.4275 193.13125 -337.355 192.5125 -336.25 191.875 C-326.5 186.25 -326.5 186.25 -323.24951172 184.37475586 C-321.08442929 183.12564482 -318.91939018 181.87645871 -316.75439453 180.62719727 C-311.31384294 177.48797691 -305.87252784 174.35009437 -300.4296875 171.21484375 C-289.93767906 165.16944841 -279.45518324 159.10889781 -269 153 C-257.45270484 146.25298806 -245.87097973 139.56660682 -234.28222656 132.89111328 C-228.85340062 129.76319854 -223.42677993 126.63146269 -218 123.5 C-211.47766725 119.73636081 -204.95486238 115.97355378 -198.4296875 112.21484375 C-187.93767906 106.16944841 -177.45518324 100.10889781 -167 94 C-155.45270484 87.25298806 -143.87097973 80.56660682 -132.28222656 73.89111328 C-126.85340062 70.76319854 -121.42677993 67.63146269 -116 64.5 C-109.47766725 60.73636081 -102.95486238 56.97355378 -96.4296875 53.21484375 C-84.94835047 46.5994067 -73.48274899 39.95854218 -62.04296875 33.27148438 C-53.58871684 28.33335694 -45.10895782 23.44015341 -36.61645508 18.56811523 C-31.25847092 15.48714271 -25.92919268 12.3694189 -20.64453125 9.1640625 C-19.13753662 8.25442749 -19.13753662 8.25442749 -17.60009766 7.32641602 C-15.70729718 6.18010559 -13.81989655 5.02481398 -11.93896484 3.85913086 C-11.09672363 3.35003174 -10.25448242 2.84093262 -9.38671875 2.31640625 C-8.65670654 1.86724854 -7.92669434 1.41809082 -7.17456055 0.95532227 C-4.52510994 -0.20862746 -2.87133132 -0.34449319 0 0 Z " fill="#FBF8F8" transform="translate(936,0)"/>
<path d="M0 0 C2.26171875 0.66796875 2.26171875 0.66796875 4.6875 2.1875 C5.656875 2.76886719 6.62625 3.35023438 7.625 3.94921875 C9.295625 4.96435547 9.295625 4.96435547 11 6 C12.98504369 7.1127181 14.98164871 8.20272465 16.97924805 9.29272461 C25.88721061 14.16280475 34.65273255 19.27124968 43.41088867 24.40429688 C51.24362762 28.99003407 59.11351442 33.5076844 67 38 C76.67500363 43.51229856 86.3128259 49.08424832 95.921875 54.7109375 C103.5857377 59.19166146 111.28678835 63.60506752 119 68 C127.69401686 72.95378823 136.36497229 77.94378369 145 83 C153.5951729 88.0318979 162.22312222 93.00389124 170.875 97.9375 C183.20025196 104.96603507 195.49722067 112.04240434 207.78222656 119.14111328 C213.18670645 122.26324605 218.59347412 125.38141204 224 128.5 C226.1666775 129.74998122 228.33334417 130.99998121 230.5 132.25 C232.10875 133.178125 232.10875 133.178125 233.75 134.125 C341 196 448.25 257.875 763.5 439.75 C764.5732251 440.36915283 765.6464502 440.98830566 766.75219727 441.6262207 C768.91159395 442.8720577 771.07093669 444.11798818 773.23022461 445.36401367 C778.75767597 448.55348953 784.28615121 451.74116885 789.81640625 454.92578125 C799.58011894 460.54975836 809.34303524 466.17477593 819.0625 471.875 C819.76511963 472.28596924 820.46773926 472.69693848 821.19165039 473.12036133 C825.87952283 475.87952283 825.87952283 475.87952283 827 477 C827.0990026 479.79773408 827.13175266 482.57080427 827.12304783 485.36901951 C827.12420167 486.26163466 827.12535552 487.15424981 827.12654433 488.0739139 C827.12921887 491.10435285 827.12468199 494.13474006 827.12025452 497.16517639 C827.12069005 499.34393417 827.12156462 501.52269189 827.12284368 503.70144933 C827.1250922 509.71922758 827.12106251 515.7369882 827.11606562 521.7547642 C827.1117664 528.23265308 827.11320717 534.71054088 827.1139679 541.18843079 C827.11466667 552.42201527 827.11137794 563.65559434 827.10573006 574.88917732 C827.09981962 586.67511078 827.09596544 598.46104193 827.09487724 610.24697685 C827.0948085 610.97889921 827.09473976 611.71082157 827.09466894 612.4649234 C827.09433062 616.18175815 827.09402923 619.89859291 827.09374207 623.61542767 C827.09163983 649.964079 827.0848974 676.31272732 827.07543945 702.66137695 C827.06625991 728.26391585 827.0591739 753.86645393 827.05493164 779.46899414 C827.05480011 780.25772414 827.05466859 781.04645413 827.05453308 781.85908504 C827.05321459 789.77960057 827.05193877 797.70011611 827.05069422 805.62063165 C827.04815778 821.7566449 827.04533653 837.8926581 827.04234314 854.02867126 C827.04220585 854.77063213 827.04206856 855.51259299 827.04192711 856.27703751 C827.03272139 905.85135962 827.01685485 955.42567996 827 1005 C826.27991821 1005.00097681 825.55983642 1005.00195362 824.81793398 1005.00296003 C782.10440526 1005.06127962 739.39092736 1005.13511236 696.67746123 1005.22898628 C691.54449588 1005.24025394 686.41153026 1005.25139247 681.27856445 1005.26245117 C679.74579514 1005.2657567 679.74579514 1005.2657567 678.18206079 1005.269129 C661.65406075 1005.30446515 645.12606076 1005.32935006 628.598037 1005.35034702 C611.6285382 1005.37213843 594.65908826 1005.40522052 577.68963104 1005.44870156 C567.22541461 1005.47516077 556.761259 1005.49289831 546.29701079 1005.49934604 C539.11339546 1005.50461749 531.92985658 1005.52089321 524.74628227 1005.54566566 C520.6067671 1005.55962064 516.46738857 1005.56887407 512.32784843 1005.56500816 C508.5280286 1005.56156736 504.72849928 1005.57213612 500.92873884 1005.59323552 C498.92370531 1005.60089704 496.91863204 1005.59411223 494.913598 1005.58658296 C482.65571419 1005.68123469 470.91364903 1007.79300261 459.4375 1012.1875 C458.64158447 1012.48793213 457.84566895 1012.78836426 457.02563477 1013.09790039 C445.45629522 1017.61250965 435.38557639 1023.83795584 426 1032 C425.15695312 1032.71027344 424.31390625 1033.42054687 423.4453125 1034.15234375 C403.01089192 1051.82283814 389.99893416 1078.09686915 388 1105 C387.7698479 1108.87356569 387.59537999 1112.74788156 387.4375 1116.625 C387.39431641 1117.62917969 387.35113281 1118.63335938 387.30664062 1119.66796875 C387.20190141 1122.11188383 387.09972744 1124.55587617 387 1127 C341.78898244 1127.81055609 295.32816194 1125.3722862 251 1116 C249.9898584 1115.78762695 248.9797168 1115.57525391 247.93896484 1115.35644531 C181.02848068 1101.05666136 125.43364936 1070.76468466 73.93920898 1026.23828125 C70.48940568 1023.25829936 66.99177941 1020.35575051 63.4375 1017.5 C59.30371385 1014.14926585 55.38398913 1010.63199628 51.5 1007 C45.86373476 1001.7351485 40.0176541 996.82674221 34 992 C32.80726658 991.0172335 31.61594599 990.03275069 30.42578125 989.046875 C4.75203788 967.83869652 -22.88819174 949.1546466 -52 933 C-53.32475342 932.26426758 -53.32475342 932.26426758 -54.67626953 931.51367188 C-76.24406207 919.64593651 -98.85619066 910.30630108 -122 902 C-123.09731445 901.5992627 -124.19462891 901.19852539 -125.32519531 900.78564453 C-151.95462468 891.08465327 -179.05898931 883.75639796 -206.92333984 878.57373047 C-212.58021008 877.51884672 -218.22787145 876.41814064 -223.875 875.3125 C-224.9462915 875.10979492 -226.01758301 874.90708984 -227.12133789 874.69824219 C-228.10996826 874.50520508 -229.09859863 874.31216797 -230.1171875 874.11328125 C-231.42598877 873.86251831 -231.42598877 873.86251831 -232.76123047 873.60668945 C-235 873 -235 873 -238 871 C-237.35675781 870.33097656 -236.71351563 869.66195312 -236.05078125 868.97265625 C-213.67683597 845.19435492 -197.24496875 817.13208747 -181.51654053 788.72369385 C-160.09947764 750.0451974 -137.35806853 711.53109599 -92.68847656 697.77880859 C-82.30246204 694.79970142 -71.62009542 692.92889139 -61 691 C-60.27474121 690.86432617 -59.54948242 690.72865234 -58.80224609 690.58886719 C-48.86381204 688.76033954 -39.06231453 688.79464664 -29 689 C-28.97812622 689.94915283 -28.97812622 689.94915283 -28.95581055 690.91748047 C-28.07529326 725.32299359 -20.94145129 755.63478542 4.48095703 780.4453125 C11.86739321 787.36006385 20.08213704 792.37553974 29 797 C29.92554688 797.48339844 30.85109375 797.96679688 31.8046875 798.46484375 C39.24352644 802.0959684 46.96975865 804.10834961 55 806 C55.73644373 806.17866724 56.47288746 806.35733447 57.23164767 806.54141587 C60.7225045 807.11968458 64.14942957 807.1415677 67.67644978 807.13422108 C68.44563548 807.13657331 69.21482118 807.13892554 70.00731555 807.14134905 C72.59394658 807.14802486 75.18052722 807.14758125 77.76716614 807.14717102 C79.63686327 807.15047054 81.5065597 807.1541963 83.37625521 807.1583125 C88.5217858 807.16833085 93.66730472 807.17204904 98.81284368 807.17470181 C104.35981261 807.17860543 109.90677231 807.18818385 115.45373535 807.19691467 C128.85488606 807.21667908 142.25603753 807.226746 155.65719917 807.23564246 C161.96952761 807.24002605 168.2818552 807.24539274 174.59418297 807.25063133 C195.58130746 807.26764481 216.56843179 807.28216294 237.55556202 807.28938007 C238.91269588 807.28985483 240.26982974 807.29033072 241.6269636 807.29080774 C242.29996593 807.29104411 242.97296825 807.29128049 243.66636459 807.29152403 C247.07599762 807.2927252 250.48563065 807.29394065 253.89526367 807.29516602 C254.91023395 807.29552624 254.91023395 807.29552624 255.94570867 807.29589374 C277.86880619 807.30378118 299.79184951 807.32720087 321.71492338 807.35972196 C344.90592962 807.39406093 368.09690549 807.41373395 391.28794116 807.41702431 C403.92432872 807.41918788 416.56063666 807.42791393 429.1970005 807.45348549 C439.96095983 807.47521767 450.72482018 807.48323053 461.48879895 807.47351871 C466.97734044 807.46898114 472.46567785 807.47082873 477.95419121 807.49028015 C482.98747855 807.50796351 488.0204137 807.50687217 493.05370506 807.49138286 C494.86608024 807.48901461 496.67848013 807.49328926 498.49081764 807.50521151 C529.46153403 807.69618391 557.04593733 795.24964423 579.6953125 774.30078125 C598.76265157 755.2657597 610.03444994 728.23074224 610.14663696 701.3956604 C610.14618378 700.30248505 610.14573059 699.20930969 610.14526367 698.08300781 C610.14862228 696.9111795 610.1519809 695.7393512 610.15544128 694.53201294 C610.16491117 690.67237273 610.16689244 686.81277609 610.16796875 682.953125 C610.1693937 681.6160963 610.17098994 680.27906778 610.17275429 678.94203949 C610.18198838 671.93856885 610.18609169 664.93511715 610.18530273 657.93164062 C610.18470278 651.43333178 610.19524349 644.93510617 610.2110464 638.43681836 C610.2241816 632.83311492 610.22948412 627.22943848 610.22884732 621.62571979 C610.22859405 618.28981433 610.23229005 614.9540415 610.24202538 611.61814117 C610.25188589 607.89021513 610.24892321 604.16250018 610.24291992 600.43457031 C610.25134918 598.80695267 610.25134918 598.80695267 610.25994873 597.14645386 C610.21816147 586.87060151 608.72622099 576.99423305 605.4375 567.25 C605.05549438 566.11510132 605.05549438 566.11510132 604.66577148 564.95727539 C600.51744547 553.23968845 594.14435483 542.3864133 586 533 C585.33613281 532.20464844 584.67226562 531.40929687 583.98828125 530.58984375 C571.14317895 515.66923121 555.3669378 505.77469017 537 499 C536.01515625 498.63132812 535.0303125 498.26265625 534.015625 497.8828125 C520.93986276 493.24193316 508.33549399 492.70740732 494.62556458 492.73930359 C492.77528676 492.73627906 490.9250102 492.73238808 489.07473582 492.72771102 C484.01534008 492.71746092 478.95601544 492.71960522 473.89661396 492.72389162 C468.43018326 492.72636431 462.96376944 492.71733787 457.49734497 492.70985413 C446.79706733 492.69711968 436.09681479 492.69531192 425.39653084 492.69765439 C416.69558669 492.6994393 407.99465014 492.69768419 399.29370689 492.69342995 C398.05410387 492.69283476 396.81450084 492.69223957 395.53733408 492.69162634 C393.01883692 492.69041456 390.50033976 492.68920042 387.9818426 492.68798397 C367.0629249 492.67835098 346.14401682 492.67790192 325.22509829 492.68328788 C324.56038681 492.68345897 323.89567533 492.68363006 323.21082109 492.68380633 C321.86661378 492.68415299 320.52240648 492.68450152 319.17819918 492.68485192 C298.27104513 492.69020688 277.36393328 492.68228305 256.45678711 492.66381836 C232.94027395 492.64307322 209.42378097 492.63241162 185.90725726 492.63639385 C173.46602211 492.63830386 161.0248254 492.63583788 148.58359718 492.62167931 C137.99075399 492.60974594 127.39797287 492.60838247 116.80512879 492.62046947 C111.4055635 492.62634473 106.00611166 492.62749515 100.60655403 492.61546707 C95.65372236 492.60456282 90.70109823 492.60776532 85.74827608 492.62172876 C83.96637918 492.62436325 82.18446577 492.62204885 80.40258513 492.61399289 C53.59786753 492.50131866 28.48954969 498.99403209 8 517 C7.19304688 517.65226563 6.38609375 518.30453125 5.5546875 518.9765625 C-13.35701002 534.80547547 -25.93734147 560.6923751 -28.19711304 585.1317749 C-28.52686403 590.37517409 -28.60975383 595.62293886 -28.6875 600.875 C-28.72077699 602.44924519 -28.75527564 604.02346505 -28.79101562 605.59765625 C-28.87470637 609.39829397 -28.94205814 613.19888616 -29 617 C-29.55534424 617.04487549 -30.11068848 617.08975098 -30.68286133 617.13598633 C-36.66864607 617.62510662 -42.65008086 618.15433819 -48.63085938 618.70117188 C-50.79527773 618.89314637 -52.9606306 619.07500239 -55.12695312 619.24414062 C-82.17380422 621.3563709 -111.14646939 626.75955331 -136 638 C-136.68562012 638.30760254 -137.37124023 638.61520508 -138.07763672 638.93212891 C-156.08075918 647.15938473 -173.47657832 658.43334293 -187 673 C-192 678 -192 678 -193.62890625 679.48828125 C-216.35071344 700.88188259 -231.3087622 731.07797238 -246.09179688 758.09765625 C-269.13765476 800.21842746 -292.73982262 837.25616884 -341.08886719 851.44335938 C-342.03487793 851.71889648 -342.03487793 851.71889648 -343 852 C-344.48886719 852.45632813 -344.48886719 852.45632813 -346.0078125 852.921875 C-351.35737718 854.48682228 -356.7832753 855.62053235 -362.25 856.6875 C-362.91209473 856.81922607 -363.57418945 856.95095215 -364.25634766 857.08666992 C-368.55420821 857.88706156 -372.63414158 858.1187604 -377 858 C-377.14695312 857.030625 -377.29390625 856.06125 -377.4453125 855.0625 C-380.62988526 835.48144764 -388.17234109 818.24403187 -401 803 C-401.47179687 802.37222656 -401.94359375 801.74445312 -402.4296875 801.09765625 C-418.57026147 780.65014155 -446.21084009 769.63893446 -471.29976273 766.60188866 C-484.13153349 765.29501991 -497.08991178 765.55529611 -509.9744041 765.56726015 C-514.22902911 765.56789237 -518.483594 765.55118686 -522.7381897 765.53674316 C-530.08354535 765.51410686 -537.42885407 765.50209818 -544.7742424 765.49761391 C-555.39401326 765.49111483 -566.01369979 765.46811216 -576.6334364 765.44127061 C-593.86938187 765.39814618 -611.10532376 765.36809786 -628.34130859 765.34643555 C-645.06984209 765.32538263 -661.79834637 765.29807016 -678.52685547 765.26245117 C-679.56055001 765.26025235 -680.59424456 765.25805352 -681.65926318 765.25578807 C-686.84576624 765.24471734 -692.03226903 765.23352473 -697.2187717 765.22227156 C-740.145822 765.12928988 -783.07288861 765.05759803 -826 765 C-826.29757709 728.44692611 -826.52663533 691.89406465 -826.66384928 655.34002879 C-826.68010841 651.02420992 -826.6969346 646.70839344 -826.71411133 642.39257812 C-826.71752136 641.53337955 -826.7209314 640.67418098 -826.72444477 639.78894609 C-826.78100752 625.87801467 -826.88350301 611.96778187 -827.00298635 598.05726486 C-827.12457157 583.78295319 -827.19676682 569.50900729 -827.22315043 555.23419905 C-827.24098625 546.42588681 -827.29730234 537.61954909 -827.40291407 528.81184477 C-827.47165311 522.77138111 -827.49239822 516.73193749 -827.47551791 510.69111115 C-827.46719147 507.20530771 -827.47990718 503.72295178 -827.54967117 500.23776245 C-827.89830937 479.84359518 -827.89830937 479.84359518 -824.75886893 475.1408329 C-821.3416225 471.8570434 -817.46141028 470.50636511 -813 469 C-810.79313841 467.77808953 -808.60592271 466.51934544 -806.44921875 465.2109375 C-804.19638318 463.93040618 -801.94244231 462.65181782 -799.6875 461.375 C-797.21129555 459.96780165 -794.7363197 458.55845344 -792.26171875 457.1484375 C-791.64569794 456.79755066 -791.02967712 456.44666382 -790.39498901 456.08514404 C-784.57259607 452.76448147 -778.78322638 449.38836939 -773 446 C-763.77214452 440.59618265 -754.50005058 435.27347484 -745.20898438 429.97949219 C-737.11255867 425.36497196 -729.04193491 420.70904745 -721 416 C-711.77199471 410.5964354 -702.5000533 405.27347639 -693.20898438 399.97949219 C-685.11255867 395.36497196 -677.04193491 390.70904745 -669 386 C-659.77199471 380.5964354 -650.5000533 375.27347639 -641.20898438 369.97949219 C-633.11255867 365.36497196 -625.04193491 360.70904745 -617 356 C-607.77199471 350.5964354 -598.5000533 345.27347639 -589.20898438 339.97949219 C-581.11255867 335.36497196 -573.04193491 330.70904745 -565 326 C-555.77199471 320.5964354 -546.5000533 315.27347639 -537.20898438 309.97949219 C-529.11255867 305.36497196 -521.04193491 300.70904745 -513 296 C-503.77199471 290.5964354 -494.5000533 285.27347639 -485.20898438 279.97949219 C-477.11255782 275.36497148 -469.04198543 270.70896206 -461 266 C-452.4048271 260.9681021 -443.77687778 255.99610876 -435.125 251.0625 C-422.79974804 244.03396493 -410.50277933 236.95759566 -398.21777344 229.85888672 C-392.81329355 226.73675395 -387.40652588 223.61858796 -382 220.5 C-379.8333225 219.25001878 -377.66665583 218.00001879 -375.5 216.75 C-268.25 154.875 -161 93 -47.24487305 27.37207031 C-45.09526366 26.13189239 -42.94568642 24.89165873 -40.79614258 23.65136719 C-35.72690788 20.7264977 -30.65735064 17.80219167 -25.5866394 14.87988281 C-23.19573403 13.50193062 -20.80501328 12.12365828 -18.41430664 10.74536133 C-16.73016037 9.77459018 -15.04574769 8.80428126 -13.36132812 7.83398438 C-12.33845703 7.24423828 -11.31558594 6.65449219 -10.26171875 6.046875 C-9.36412842 5.52963867 -8.46653809 5.01240234 -7.54174805 4.47949219 C-5.77384643 3.45043794 -4.03189375 2.37602527 -2.3125 1.26782227 C-1.549375 0.84944092 -0.78625 0.43105957 0 0 Z " fill="#8F0000" transform="translate(933,125)"/>
<path d="M0 0 C30.09366157 -0.19025016 59.86625496 1.15464042 89.83013916 3.80792236 C91.84018892 3.98585341 93.85050392 4.1607811 95.86083984 4.33544922 C115.08767028 6.04831304 133.9993781 9.15514568 152.97161865 12.62896729 C154.90203128 12.9820795 156.83307997 13.33170924 158.76416016 13.68115234 C180.6770969 17.6655977 201.91015281 22.81153248 223 30 C224.03511719 30.3515918 225.07023438 30.70318359 226.13671875 31.06542969 C270.34830936 46.27816337 311.73522984 69.8002874 347.08203125 100.48046875 C349.90754834 102.92017226 352.78334692 105.27980525 355.6875 107.625 C360.08370366 111.20049415 364.28985859 114.94091209 368.4765625 118.7578125 C371.05082358 121.04515904 373.69289489 123.21548271 376.375 125.375 C380.32895197 128.56921646 384.10398343 131.90201277 387.8125 135.375 C392.60603883 139.84850008 397.61051044 143.9461084 402.79931641 147.95141602 C406.51053838 150.81742269 410.11978589 153.76725448 413.6875 156.8125 C434.78060396 174.47378943 458.11485261 189.43639926 482 203 C482.7204248 203.41056641 483.44084961 203.82113281 484.18310547 204.24414062 C505.04771441 216.0177772 527.45986556 225.00467819 550 233 C550.79664063 233.28568848 551.59328125 233.57137695 552.4140625 233.86572266 C565.0667271 238.37404967 577.96860625 241.7744516 591 245 C591.8859082 245.22042969 592.77181641 245.44085937 593.68457031 245.66796875 C598.90246186 246.9592355 604.13021363 248.19886015 609.37060547 249.39550781 C611.09016088 249.79082993 612.80804111 250.19352968 614.52392578 250.60449219 C629.11573307 254.08500393 643.83138902 256.20927709 658.6875 258.1875 C659.63351074 258.31405975 660.57952148 258.44061951 661.55419922 258.5710144 C684.75667229 261.6520587 707.88013107 263.43310737 731.25567627 264.52801514 C734.73638131 264.6921399 738.21680796 264.86197454 741.69726562 265.03125 C748.46458967 265.35958156 755.23218937 265.68185939 762 266 C762.02407425 266.73721283 762.0481485 267.47442566 762.07295227 268.23397827 C762.18612634 271.622296 762.30591053 275.01035033 762.42578125 278.3984375 C762.46352661 279.55786865 762.50127197 280.7172998 762.54016113 281.91186523 C763.64260701 312.40390485 774.39243104 338.85044541 796.84375 360.18359375 C808.6322296 370.94714675 823.07925234 378.17884402 838.0625 383.375 C839.0683313 383.73307739 839.0683313 383.73307739 840.09448242 384.09838867 C851.86481257 387.94485633 864.44301444 388.29702807 876.71153259 388.2784729 C878.12691374 388.28349135 879.54229205 388.28937159 880.95766646 388.29602563 C884.80032642 388.31165259 888.64291294 388.31524662 892.48560083 388.31667423 C896.64695097 388.32039893 900.80826222 388.33556931 904.96958923 388.34928894 C912.16391013 388.37147 919.35821703 388.38653807 926.55256462 388.39665604 C936.95414109 388.41129504 947.35566873 388.43684623 957.7572164 388.46498732 C974.63655251 388.51036086 991.51589569 388.5470145 1008.39526367 388.578125 C1024.78362263 388.60834932 1041.17196435 388.64271733 1057.56030273 388.68261719 C1058.57194038 388.68507874 1059.58357802 388.68754028 1060.62587135 388.69007643 C1065.70139623 388.70245178 1070.7769209 388.71490817 1075.85244548 388.72740483 C1117.90160988 388.83083118 1159.95078634 388.91846367 1202 389 C1202 425.3 1202 461.6 1202 499 C1193.75 503.62 1185.5 508.24 1177 513 C1168.0368581 518.20530347 1168.0368581 518.20530347 1159.08984375 523.4375 C1152.78429581 527.1321331 1146.45705564 530.78852681 1140.125 534.4375 C1139.04484619 535.06003662 1137.96469238 535.68257324 1136.85180664 536.32397461 C1134.66203666 537.58576826 1132.47217645 538.84740534 1130.28222656 540.10888672 C1124.85340058 543.23680148 1119.42680719 546.36858448 1114 549.5 C1111.83334417 550.75001879 1109.6666775 552.00001878 1107.5 553.25 C1105.89125 554.178125 1105.89125 554.178125 1104.25 555.125 C997 617 889.75 678.875 441.24902344 937.62548828 C439.08552524 938.87371034 436.92211357 940.12208239 434.75878906 941.37060547 C429.29434983 944.52405256 423.82836355 947.67476096 418.359375 950.8203125 C417.26447754 951.45066406 416.16958008 952.08101562 415.04150391 952.73046875 C412.86746795 953.98180527 410.69267691 955.23183095 408.51708984 956.48046875 C403.18048385 959.55184975 397.87647653 962.66496563 392.6171875 965.8671875 C391.60688477 966.47868652 390.59658203 967.09018555 389.55566406 967.72021484 C387.64741787 968.87908811 385.74534028 970.04820047 383.85058594 971.22900391 C383.0052832 971.74124512 382.15998047 972.25348633 381.2890625 972.78125 C380.55381348 973.23564453 379.81856445 973.69003906 379.06103516 974.15820312 C376.49447862 975.20647213 375.55657326 975.00302046 373 974 C371.44987272 973.23030672 369.92542028 972.40791248 368.421875 971.55078125 C367.52106201 971.0398291 366.62024902 970.52887695 365.69213867 970.00244141 C364.72123291 969.44476074 363.75032715 968.88708008 362.75 968.3125 C361.73075439 967.73161621 360.71150879 967.15073242 359.66137695 966.55224609 C350.45899047 961.29474606 341.30694842 955.95108559 332.16015625 950.59765625 C322.56057762 944.98321325 312.91864049 939.4419968 303.28222656 933.89111328 C297.85340058 930.76319852 292.42680719 927.63141552 287 924.5 C284.83334417 923.24998121 282.6666775 921.99998122 280.5 920.75 C33.5 778.25 33.5 778.25 30.25048828 776.37524414 C28.08223736 775.1243552 25.91394303 773.87354148 23.74560547 772.62280273 C18.35282085 769.51201665 12.96077907 766.39995762 7.5703125 763.28515625 C-4.23629484 756.46497363 -16.06027 749.6767674 -27.90472412 742.92263794 C-36.94329428 737.76664555 -45.94277138 732.54679327 -54.92236328 727.28881836 C-62.58602252 722.80810607 -70.28694638 718.39484244 -78 714 C-87.67481219 708.48736165 -97.31282137 702.91575433 -106.921875 697.2890625 C-114.5857377 692.80833854 -122.28678835 688.39493248 -130 684 C-139.67481219 678.48736165 -149.31282137 672.91575433 -158.921875 667.2890625 C-166.5857377 662.80833854 -174.28678835 658.39493248 -182 654 C-191.67481219 648.48736165 -201.31282137 642.91575433 -210.921875 637.2890625 C-218.5857377 632.80833854 -226.28678835 628.39493248 -234 624 C-243.67481219 618.48736165 -253.31282137 612.91575433 -262.921875 607.2890625 C-270.5857377 602.80833854 -278.28678835 598.39493248 -286 594 C-295.67481219 588.48736165 -305.31282137 582.91575433 -314.921875 577.2890625 C-322.5857377 572.80833854 -330.28678835 568.39493248 -338 564 C-347.67481219 558.48736165 -357.31282137 552.91575433 -366.921875 547.2890625 C-375.17726005 542.4625014 -383.4771454 537.71612007 -391.78598022 532.98251343 C-400.84935818 527.81779335 -409.88061269 522.60087671 -418.86914062 517.30664062 C-429.50408094 511.06525507 -440.25938353 505.07078322 -451 499 C-451 382.51 -451 266.02 -451 146 C-277.125 145.6875 -277.125 145.6875 -222.25048828 145.61206055 C-205.99924753 145.57549055 -205.99924753 145.57549055 -189.74801636 145.5349884 C-182.51713242 145.51707254 -175.28629306 145.50720412 -168.0553894 145.50288391 C-159.70536934 145.497867 -151.35544353 145.482458 -143.00546759 145.45451616 C-138.73902204 145.44055889 -134.47270781 145.43106553 -130.20623803 145.43496072 C-101.74989166 145.80157969 -101.74989166 145.80157969 -74.25 139.25 C-73.55865967 138.99250977 -72.86731934 138.73501953 -72.1550293 138.46972656 C-44.29538385 127.81816734 -22.37774258 108.79502519 -9.75219727 81.60083008 C-3.64472415 67.7770178 -0.9167148 54.21707914 -0.68359375 39.16015625 C-0.6524221 37.47701576 -0.6524221 37.47701576 -0.62062073 35.75987244 C-0.5555137 32.19414075 -0.49642159 28.62833873 -0.4375 25.0625 C-0.39427781 22.63736267 -0.35066236 20.21223232 -0.30664062 17.78710938 C-0.19987236 11.85814612 -0.09803552 5.92911373 0 0 Z " fill="#730000" transform="translate(558,1058)"/>
<path d="M0 0 C2.3581543 1.04711914 2.3581543 1.04711914 4.82421875 2.53515625 C6.22293213 3.36648071 6.22293213 3.36648071 7.64990234 4.21459961 C8.65230957 4.82440674 9.6547168 5.43421387 10.6875 6.0625 C12.86018566 7.35759561 15.03338004 8.65183809 17.20703125 9.9453125 C18.89046631 10.95319824 18.89046631 10.95319824 20.60791016 11.98144531 C25.99827466 15.18912731 31.43640847 18.31252697 36.875 21.4375 C39.05739912 22.69512606 41.23969016 23.95293967 43.421875 25.2109375 C45.6145405 26.47403269 47.80724889 27.73705344 50 29 C63.67554314 36.87662589 77.33960958 44.77120092 90.96582031 52.73291016 C102.61659185 59.53587623 114.30903744 66.26642186 126 73 C139.67554314 80.87662589 153.33960958 88.77120092 166.96582031 96.73291016 C177.52620282 102.89919054 188.12126766 109.0049595 198.71777344 115.10888672 C205.22871257 118.86028024 211.73663194 122.61690994 218.24511719 126.37255859 C223.68585336 129.51182246 229.12731477 132.64981497 234.5703125 135.78515625 C246.0544882 142.40222892 257.52196894 149.04633977 268.96582031 155.73291016 C280.61659185 162.53587623 292.30903744 169.26642186 304 176 C317.67554314 183.87662589 331.33960958 191.77120092 344.96582031 199.73291016 C355.52620282 205.89919054 366.12126766 212.0049595 376.71777344 218.10888672 C383.22871257 221.86028024 389.73663194 225.61690994 396.24511719 229.37255859 C401.68585336 232.51182246 407.12731477 235.64981497 412.5703125 238.78515625 C424.0544882 245.40222892 435.52196894 252.04633977 446.96582031 258.73291016 C458.61659185 265.53587623 470.30903744 272.26642186 482 279 C495.67554314 286.87662589 509.33960958 294.77120092 522.96582031 302.73291016 C534.61659185 309.53587623 546.30903744 316.26642186 558 323 C571.67554314 330.87662589 585.33960958 338.77120092 598.96582031 346.73291016 C609.52620282 352.89919054 620.12126766 359.0049595 630.71777344 365.10888672 C637.22871257 368.86028024 643.73663194 372.61690994 650.24511719 376.37255859 C655.68585336 379.51182246 661.12731477 382.64981497 666.5703125 385.78515625 C678.0544882 392.40222892 689.52196894 399.04633977 700.96582031 405.73291016 C712.61659185 412.53587623 724.30903744 419.26642186 736 426 C749.67554314 433.87662589 763.33960958 441.77120092 776.96582031 449.73291016 C787.52620282 455.89919054 798.12126766 462.0049595 808.71777344 468.10888672 C815.22871257 471.86028024 821.73663194 475.61690994 828.24511719 479.37255859 C833.68585336 482.51182246 839.12731477 485.64981497 844.5703125 488.78515625 C856.04795062 495.39846202 867.5096644 502.03751247 878.94604492 508.72192383 C887.43858259 513.68202469 895.95546528 518.5993245 904.48242188 523.5 C906.46118906 524.638785 908.43024635 525.79464504 910.38815668 526.96892696 C912.95586132 528.46826334 915.5594039 529.71857953 918.27819634 530.9202824 C929.48113884 536.16616559 929.48113884 536.16616559 931.98729538 540.84205885 C933.5730171 546.1333737 933.28104139 551.59502366 933.15326595 557.06092548 C933.17253127 558.91059767 933.19923607 560.76020461 933.23267952 562.60967478 C933.30308694 567.70036987 933.26760222 572.7856808 933.21495523 577.87638794 C933.17636799 583.41079294 933.23616329 588.94427617 933.2834211 594.47849292 C933.3525718 604.18030994 933.35828409 613.88056816 933.32257462 623.58254242 C933.27209463 637.3342999 933.30761789 651.08477443 933.367621 664.83643282 C933.48613075 692.0245778 933.49517963 719.21199419 933.46153384 746.40032675 C933.4569207 750.15663392 933.45247156 753.91294125 933.4481914 757.66924882 C933.44733985 758.41534853 933.4464883 759.16144824 933.44561094 759.93015703 C933.42748718 776.46633391 933.44337675 793.00242605 933.46641329 809.53859027 C933.46956445 811.80188473 933.47264096 814.06517929 933.47569447 816.32847388 C933.48389019 822.39563785 933.49216208 828.4628017 933.50057903 834.52996536 C933.55894238 876.8837631 933.58322447 919.2374802 933.53610134 961.5912981 C933.5347783 962.78882732 933.5347783 962.78882732 933.53342853 964.01054905 C933.52356115 972.91300842 933.51317261 981.81546717 933.50257873 990.71792571 C933.50162257 991.52168489 933.50066642 992.32544407 933.49968129 993.15355959 C933.49581154 996.40402545 933.49194159 999.65449132 933.48803742 1002.90495714 C933.42636779 1054.31797319 933.4656494 1105.72993429 933.59350586 1157.14282227 C933.62566531 1170.09750347 933.65754525 1183.05218517 933.68769741 1196.00687122 C933.69048703 1197.20337947 933.69048703 1197.20337947 933.69333301 1198.42405961 C933.75028365 1223.00860068 933.78008073 1247.59305366 933.78118229 1272.17766094 C933.78121903 1272.94950214 933.78125577 1273.72134333 933.78129363 1274.51657365 C933.78181012 1291.46022843 933.77551227 1308.40387534 933.76300969 1325.34752533 C933.75857758 1331.41021855 933.75456039 1337.47291204 933.75070751 1343.53560565 C933.74973927 1345.04384464 933.74874349 1346.5520836 933.74772004 1348.06032255 C933.73156974 1372.09184806 933.77719399 1396.12275246 933.85269085 1420.15414884 C933.93025015 1445.03084717 933.92596259 1469.90634362 933.82875466 1494.78298859 C933.77439625 1509.12741416 933.78203438 1523.46889585 933.87622045 1537.8131383 C933.93302528 1547.39113678 933.91005389 1556.9667873 933.82181073 1566.54454253 C933.77373653 1572.00582757 933.7604565 1577.46110207 933.84396928 1582.92209551 C934.29448404 1614.50952264 934.29448404 1614.50952264 928.82166429 1621.96913479 C923.69013763 1626.55972546 918.09692287 1629.09419234 911.57775796 1631.14060327 C908.04565102 1632.31816967 905.21741721 1634.03627454 902.078125 1636.0234375 C900.13611511 1637.14183867 898.19341594 1638.25904388 896.25 1639.375 C894.04685608 1640.64319629 891.84373165 1641.91142645 889.640625 1643.1796875 C887.99416992 1644.12666504 887.99416992 1644.12666504 886.31445312 1645.09277344 C880.87349435 1648.22364924 875.43694752 1651.36216542 870 1654.5 C867.83335502 1655.75003758 865.66668834 1657.00003756 863.5 1658.25 C862.4275 1658.86875 861.355 1659.4875 860.25 1660.125 C746.5 1725.75 746.5 1725.75 743.24951172 1727.62524414 C741.08442929 1728.87435518 738.91939018 1730.12354129 736.75439453 1731.37280273 C731.31384294 1734.51202309 725.87252784 1737.64990563 720.4296875 1740.78515625 C709.97793801 1746.80747329 699.53700452 1752.84669337 689.125 1758.9375 C679.85500223 1764.35921178 670.54168248 1769.70204915 661.21154785 1775.01922607 C652.0871716 1780.22045129 642.99867226 1785.48027878 633.93310547 1790.78344727 C623.40915375 1796.93766742 612.84619863 1803.02369996 602.28222656 1809.10888672 C596.85340058 1812.23680148 591.42680719 1815.36858448 586 1818.5 C583.83334417 1819.75001879 581.6666775 1821.00001878 579.5 1822.25 C578.4275 1822.86875 577.355 1823.4875 576.25 1824.125 C462.5 1889.75 462.5 1889.75 459.24951172 1891.62524414 C457.08442929 1892.87435518 454.91939018 1894.12354129 452.75439453 1895.37280273 C447.31384294 1898.51202309 441.87252784 1901.64990563 436.4296875 1904.78515625 C425.97793801 1910.80747329 415.53700452 1916.84669337 405.125 1922.9375 C395.85500223 1928.35921178 386.54168248 1933.70204915 377.21154785 1939.01922607 C368.0871716 1944.22045129 358.99867226 1949.48027878 349.93310547 1954.78344727 C339.40915375 1960.93766742 328.84619863 1967.02369996 318.28222656 1973.10888672 C312.85340058 1976.23680148 307.42680719 1979.36858448 302 1982.5 C299.83334417 1983.75001879 297.6666775 1985.00001878 295.5 1986.25 C294.4275 1986.86875 293.355 1987.4875 292.25 1988.125 C178.5 2053.75 178.5 2053.75 175.24951172 2055.62524414 C173.08442929 2056.87435518 170.91939018 2058.12354129 168.75439453 2059.37280273 C163.31384294 2062.51202309 157.87252784 2065.64990563 152.4296875 2068.78515625 C141.97793801 2074.80747329 131.53700452 2080.84669337 121.125 2086.9375 C111.85500223 2092.35921178 102.54168248 2097.70204915 93.21154785 2103.01922607 C84.0871716 2108.22045129 74.99867226 2113.48027878 65.93310547 2118.78344727 C54.31918267 2125.57506316 42.65805025 2132.28451772 31 2139 C26.8036869 2141.41783662 22.60779716 2143.83640662 18.41229248 2146.25564575 C16.72901778 2147.22606473 15.04542113 2148.19592519 13.36181641 2149.16577148 C11.82726807 2150.05051147 11.82726807 2150.05051147 10.26171875 2150.953125 C8.91533325 2151.72897949 8.91533325 2151.72897949 7.54174805 2152.52050781 C5.79422532 2153.53769998 4.06996282 2154.59558947 2.3671875 2155.68603516 C-0.30041723 2157.16675387 -1.96639909 2157.30658161 -4.95068359 2156.70410156 C-9.5749999 2155.11528476 -13.65833979 2152.40980513 -17.8125 2149.875 C-19.96694207 2148.58899593 -22.12190794 2147.30386906 -24.27734375 2146.01953125 C-25.38706543 2145.3538916 -26.49678711 2144.68825195 -27.64013672 2144.00244141 C-33.01808459 2140.79724388 -38.44650634 2137.68105758 -43.875 2134.5625 C-46.06002503 2133.30360964 -48.2449202 2132.04449385 -50.4296875 2130.78515625 C-51.51475586 2130.16012207 -52.59982422 2129.53508789 -53.71777344 2128.89111328 C-60.22871257 2125.13971976 -66.73663194 2121.38309006 -73.24511719 2117.62744141 C-78.68585336 2114.48817754 -84.12731477 2111.35018503 -89.5703125 2108.21484375 C-101.0544882 2101.59777108 -112.52196894 2094.95366023 -123.96582031 2088.26708984 C-134.52620282 2082.10080946 -145.12126766 2075.9950405 -155.71777344 2069.89111328 C-161.14659942 2066.76319852 -166.57319281 2063.63141552 -172 2060.5 C-174.16665583 2059.24998121 -176.3333225 2057.99998122 -178.5 2056.75 C-226.16666667 2029.25 -273.83333333 2001.75 -321.5 1974.25 C-322.57266113 1973.63116943 -323.64532227 1973.01233887 -324.75048828 1972.37475586 C-326.91557071 1971.12564482 -329.08060982 1969.87645871 -331.24560547 1968.62719727 C-336.68615706 1965.48797691 -342.12747216 1962.35009437 -347.5703125 1959.21484375 C-358.02206199 1953.19252671 -368.46299548 1947.15330663 -378.875 1941.0625 C-387.55262241 1935.98724877 -396.26605568 1930.97741233 -405 1926 C-414.72115617 1920.4599827 -424.40894658 1914.86625191 -434.06689453 1909.21655273 C-444.59084625 1903.06233258 -455.15380137 1896.97630004 -465.71777344 1890.89111328 C-471.14659942 1887.76319852 -476.57319281 1884.63141552 -482 1881.5 C-484.16665583 1880.24998121 -486.3333225 1878.99998122 -488.5 1877.75 C-527.5 1855.25 -566.5 1832.75 -605.5 1810.25 C-606.57266113 1809.63116943 -607.64532227 1809.01233887 -608.75048828 1808.37475586 C-610.91557071 1807.12564482 -613.08060982 1805.87645871 -615.24560547 1804.62719727 C-620.68615706 1801.48797691 -626.12747216 1798.35009437 -631.5703125 1795.21484375 C-642.02206199 1789.19252671 -652.46299548 1783.15330663 -662.875 1777.0625 C-671.55262241 1771.98724877 -680.26605568 1766.97741233 -689 1762 C-698.72115617 1756.4599827 -708.40894658 1750.86625191 -718.06689453 1745.21655273 C-728.59084625 1739.06233258 -739.15380137 1732.97630004 -749.71777344 1726.89111328 C-755.14659942 1723.76319852 -760.57319281 1720.63141552 -766 1717.5 C-768.16665583 1716.24998121 -770.3333225 1714.99998122 -772.5 1713.75 C-802.83333333 1696.25 -833.16666667 1678.75 -863.5 1661.25 C-864.57266113 1660.63116943 -865.64532227 1660.01233887 -866.75048828 1659.37475586 C-868.91557071 1658.12564482 -871.08060982 1656.87645871 -873.24560547 1655.62719727 C-878.68615706 1652.48797691 -884.12747216 1649.35009437 -889.5703125 1646.21484375 C-900.53917031 1639.89489797 -911.49900385 1633.55988113 -922.4375 1627.1875 C-923.45666504 1626.59445068 -924.47583008 1626.00140137 -925.52587891 1625.39038086 C-926.4647998 1624.84260986 -927.4037207 1624.29483887 -928.37109375 1623.73046875 C-929.6075061 1623.00960083 -929.6075061 1623.00960083 -930.86889648 1622.27416992 C-932.61029285 1621.23300282 -934.31184188 1620.12543875 -936 1619 C-936.30489852 1616.53089398 -936.41001425 1614.30982433 -936.3898555 1611.83696741 C-936.39555323 1611.08554781 -936.40125095 1610.3341282 -936.40712133 1609.55993831 C-936.42271873 1607.01056855 -936.41672771 1604.46168895 -936.41104317 1601.9122839 C-936.4178062 1600.07080919 -936.42587862 1598.2293389 -936.43515068 1596.38787511 C-936.45695366 1591.28419823 -936.45983846 1586.1806533 -936.459819 1581.07693616 C-936.46301613 1575.54085596 -936.48337388 1570.00483535 -936.50153911 1564.46878773 C-936.53483036 1553.46917256 -936.55172776 1542.46958615 -936.56366574 1531.46992945 C-936.57789902 1518.97768676 -936.60751207 1506.48549509 -936.63815369 1493.99328395 C-936.71772185 1461.48760489 -936.76436599 1428.98190414 -936.80364235 1396.47615494 C-936.81638782 1385.93664766 -936.83009063 1375.39714197 -936.8443923 1364.85763669 C-936.91911319 1309.66520411 -936.98531212 1254.47276695 -937.02196344 1199.28029468 C-937.02465558 1195.23900508 -937.02739968 1191.19771552 -937.03014665 1187.15642596 C-937.03069149 1186.3547513 -937.03123633 1185.55307663 -937.03179768 1184.7271088 C-937.03732579 1176.60483311 -937.04292335 1168.48255746 -937.04859194 1160.36028186 C-937.04972609 1158.73172453 -937.05085497 1157.10316719 -937.05197859 1155.47460985 C-937.08807136 1103.16756788 -937.17713876 1050.86082524 -937.30222393 998.55392431 C-937.39205749 960.97696585 -937.47495049 923.40006874 -937.50405693 885.82300663 C-937.5046586 885.05041434 -937.50526027 884.27782205 -937.50588017 883.48181787 C-937.51893124 866.52238787 -937.52776892 849.56295819 -937.5326597 832.60352395 C-937.53468882 825.77987765 -937.53725537 818.95623158 -937.53997421 812.13258553 C-937.5402565 811.38576757 -937.54053879 810.63894961 -937.54082963 809.86950081 C-937.55017087 785.8004385 -937.60572456 761.73175676 -937.68502412 737.66283163 C-937.76462672 713.42205873 -937.79691746 689.18171068 -937.76381616 664.94081544 C-937.74330699 649.89553123 -937.76318047 634.85164706 -937.85055276 619.80657717 C-937.90214375 610.21562755 -937.89960446 600.62569384 -937.8524497 591.03472355 C-937.82710759 585.56338455 -937.82582045 580.09488282 -937.89028408 574.623802 C-937.94844431 569.64789233 -937.93783453 564.67709711 -937.87182362 559.70132868 C-937.8602089 557.91077429 -937.87387414 556.11983693 -937.91558466 554.32973074 C-938.1981706 541.3642922 -938.1981706 541.3642922 -934.54040284 537.4300972 C-930.95740996 534.60782105 -927.0474088 532.65629243 -922.87942807 530.8472428 C-920.04573881 529.56982077 -917.42142385 527.96928575 -914.76171875 526.3671875 C-912.73774693 525.20179059 -910.71298949 524.03775716 -908.6875 522.875 C-906.42055224 521.57034843 -904.15362576 520.26565987 -901.88671875 518.9609375 C-900.74509277 518.30448242 -899.6034668 517.64802734 -898.42724609 516.97167969 C-892.94844212 513.81974773 -887.47436113 510.65963997 -882 507.5 C-875.47770839 503.7362896 -868.95486232 499.97355375 -862.4296875 496.21484375 C-851.93767906 490.16944841 -841.45518324 484.10889781 -831 478 C-819.45270484 471.25298806 -807.87097973 464.56660682 -796.28222656 457.89111328 C-790.85340062 454.76319854 -785.42677993 451.63146269 -780 448.5 C-773.47766725 444.73636081 -766.95486238 440.97355378 -760.4296875 437.21484375 C-749.93767906 431.16944841 -739.45518324 425.10889781 -729 419 C-717.45270484 412.25298806 -705.87097973 405.56660682 -694.28222656 398.89111328 C-688.85340058 395.76319852 -683.42680719 392.63141552 -678 389.5 C-675.83334417 388.24998121 -673.6666775 386.99998122 -671.5 385.75 C-670.4275 385.13125 -669.355 384.5125 -668.25 383.875 C-658.5 378.25 -658.5 378.25 -655.24951172 376.37475586 C-653.08442929 375.12564482 -650.91939018 373.87645871 -648.75439453 372.62719727 C-643.31384294 369.48797691 -637.87252784 366.35009437 -632.4296875 363.21484375 C-621.93767906 357.16944841 -611.45518324 351.10889781 -601 345 C-589.45270484 338.25298806 -577.87097973 331.56660682 -566.28222656 324.89111328 C-560.85340062 321.76319854 -555.42677993 318.63146269 -550 315.5 C-543.47766725 311.73636081 -536.95486238 307.97355378 -530.4296875 304.21484375 C-519.93767906 298.16944841 -509.45518324 292.10889781 -499 286 C-487.45270484 279.25298806 -475.87097973 272.56660682 -464.28222656 265.89111328 C-458.85340062 262.76319854 -453.42677993 259.63146269 -448 256.5 C-441.47766725 252.73636081 -434.95486238 248.97355378 -428.4296875 245.21484375 C-417.93767906 239.16944841 -407.45518324 233.10889781 -397 227 C-385.45270484 220.25298806 -373.87097973 213.56660682 -362.28222656 206.89111328 C-356.85340058 203.76319852 -351.42680719 200.63141552 -346 197.5 C-343.83334417 196.24998121 -341.6666775 194.99998122 -339.5 193.75 C-338.4275 193.13125 -337.355 192.5125 -336.25 191.875 C-326.5 186.25 -326.5 186.25 -323.24951172 184.37475586 C-321.08442929 183.12564482 -318.91939018 181.87645871 -316.75439453 180.62719727 C-311.31384294 177.48797691 -305.87252784 174.35009437 -300.4296875 171.21484375 C-289.93767906 165.16944841 -279.45518324 159.10889781 -269 153 C-257.45270484 146.25298806 -245.87097973 139.56660682 -234.28222656 132.89111328 C-228.85340062 129.76319854 -223.42677993 126.63146269 -218 123.5 C-211.47766725 119.73636081 -204.95486238 115.97355378 -198.4296875 112.21484375 C-187.93767906 106.16944841 -177.45518324 100.10889781 -167 94 C-155.45270484 87.25298806 -143.87097973 80.56660682 -132.28222656 73.89111328 C-126.85340062 70.76319854 -121.42677993 67.63146269 -116 64.5 C-109.47766725 60.73636081 -102.95486238 56.97355378 -96.4296875 53.21484375 C-84.94835047 46.5994067 -73.48274899 39.95854218 -62.04296875 33.27148438 C-53.58871684 28.33335694 -45.10895782 23.44015341 -36.61645508 18.56811523 C-31.25847092 15.48714271 -25.92919268 12.3694189 -20.64453125 9.1640625 C-19.13753662 8.25442749 -19.13753662 8.25442749 -17.60009766 7.32641602 C-15.70729718 6.18010559 -13.81989655 5.02481398 -11.93896484 3.85913086 C-11.09672363 3.35003174 -10.25448242 2.84093262 -9.38671875 2.31640625 C-8.65670654 1.86724854 -7.92669434 1.41809082 -7.17456055 0.95532227 C-4.52510994 -0.20862746 -2.87133132 -0.34449319 0 0 Z M-22.125 97.0625 C-23.34849981 97.79620951 -24.57363405 98.52719961 -25.80029297 99.25561523 C-28.31687413 100.75370891 -30.82529073 102.26421376 -33.328125 103.78515625 C-38.86991396 107.14284551 -44.50216708 110.34314748 -50.125 113.5625 C-52.2740122 114.80238986 -54.42245003 116.04327577 -56.5703125 117.28515625 C-63.04510022 121.02651656 -69.52236343 124.76357483 -76 128.5 C-78.1666775 129.74998122 -80.33334417 130.99998121 -82.5 132.25 C-112.83333333 149.75 -143.16666667 167.25 -173.5 184.75 C-174.57233887 185.36866943 -175.64467773 185.98733887 -176.74951172 186.62475586 C-178.91776264 187.8756448 -181.08605697 189.12645852 -183.25439453 190.37719727 C-188.64717915 193.48798335 -194.03922093 196.60004238 -199.4296875 199.71484375 C-211.23629484 206.53502637 -223.06027 213.3232326 -234.90472412 220.07736206 C-242.96263212 224.67394223 -250.99417786 229.3132416 -259 234 C-267.59522672 239.0318069 -276.2231213 244.00389072 -284.875 248.9375 C-297.20025196 255.96603507 -309.49722067 263.04240434 -321.78222656 270.14111328 C-327.18670645 273.26324605 -332.59347412 276.38141204 -338 279.5 C-340.1666775 280.74998122 -342.33334417 281.99998121 -344.5 283.25 C-377 302 -377 302 -409.5 320.75 C-410.57233887 321.36866943 -411.64467773 321.98733887 -412.74951172 322.62475586 C-414.91776264 323.8756448 -417.08605697 325.12645852 -419.25439453 326.37719727 C-424.64717915 329.48798335 -430.03922093 332.60004238 -435.4296875 335.71484375 C-447.23629484 342.53502637 -459.06027 349.3232326 -470.90472412 356.07736206 C-478.96263212 360.67394223 -486.99417786 365.3132416 -495 370 C-503.59522672 375.0318069 -512.2231213 380.00389072 -520.875 384.9375 C-533.20025196 391.96603507 -545.49722067 399.04240434 -557.78222656 406.14111328 C-563.18670645 409.26324605 -568.59347412 412.38141204 -574 415.5 C-576.1666775 416.74998122 -578.33334417 417.99998121 -580.5 419.25 C-613 438 -613 438 -645.5 456.75 C-646.57233887 457.36866943 -647.64467773 457.98733887 -648.74951172 458.62475586 C-650.91776264 459.8756448 -653.08605697 461.12645852 -655.25439453 462.37719727 C-660.64717915 465.48798335 -666.03922093 468.60004238 -671.4296875 471.71484375 C-683.23629484 478.53502637 -695.06027 485.3232326 -706.90472412 492.07736206 C-714.96263212 496.67394223 -722.99417786 501.3132416 -731 506 C-739.59522672 511.0318069 -748.2231213 516.00389072 -756.875 520.9375 C-769.20025196 527.96603507 -781.49722067 535.04240434 -793.78222656 542.14111328 C-798.10367376 544.63758513 -802.4266027 547.1314838 -806.74975586 549.625 C-808.90448627 550.86802032 -811.05894907 552.11150467 -813.21313477 553.35546875 C-818.24132013 556.25855871 -823.27155573 559.1578789 -828.31021118 562.04275513 C-830.08432545 563.05877184 -831.85769919 564.07606928 -833.63085938 565.09375 C-835.84815314 566.36582292 -838.06681075 567.63552285 -840.28710938 568.90234375 C-853.57130615 575.86310022 -853.57130615 575.86310022 -863 587 C-863.0974012 589.18150848 -863.12748494 591.3660977 -863.12880117 593.54977912 C-863.13057618 594.23478216 -863.13235119 594.9197852 -863.13417998 595.62554591 C-863.13895591 597.94839504 -863.13653835 600.27118301 -863.13422108 602.59403515 C-863.13617241 604.27238945 -863.13856064 605.9507433 -863.14134905 607.62909642 C-863.14777956 612.27983637 -863.14790825 616.93055912 -863.14707164 621.58130268 C-863.14724054 626.62636255 -863.15313991 631.67141615 -863.1583125 636.71647292 C-863.16766023 646.74011401 -863.17156419 656.76375068 -863.17383147 666.78739558 C-863.17678788 678.78644442 -863.18548193 690.78548736 -863.19424575 702.78453312 C-863.2151136 731.79035152 -863.22556672 760.79617103 -863.23437535 789.80199488 C-863.23730826 799.40583608 -863.240678 809.00967705 -863.24434257 818.613518 C-863.24460086 819.2908075 -863.24485915 819.968097 -863.24512527 820.66591043 C-863.24617146 823.40584899 -863.24721988 826.14578756 -863.24827109 828.88572613 C-863.26623658 875.75311924 -863.28161665 922.62051271 -863.28903012 969.48790877 C-863.2896141 973.17023279 -863.29021136 976.8525568 -863.29080774 980.53488081 C-863.29092586 981.26534754 -863.29104398 981.99581427 -863.29116567 982.74841636 C-863.29236308 990.14924752 -863.29357184 997.55007868 -863.29479821 1004.95090984 C-863.29504344 1006.43481463 -863.2952873 1007.91871941 -863.29552978 1009.4026242 C-863.30332065 1057.06712317 -863.32570605 1104.73159753 -863.3582062 1152.39608575 C-863.38154658 1186.63845251 -863.40310109 1220.88081439 -863.41021252 1255.12318897 C-863.41035954 1255.8271587 -863.41050656 1256.53112843 -863.41065803 1257.25643058 C-863.41384262 1272.70916567 -863.41589368 1288.16190072 -863.41688558 1303.6146361 C-863.41730033 1309.83197128 -863.41785523 1316.04930645 -863.41844749 1322.26664162 C-863.41850816 1322.94710288 -863.41856883 1323.62756415 -863.41863134 1324.32864545 C-863.42064864 1346.26211189 -863.43489671 1368.19554929 -863.4553925 1390.1290056 C-863.47653144 1412.831207 -863.48333751 1435.53337985 -863.47351871 1458.23559131 C-863.46828805 1471.33159597 -863.47425483 1484.42748538 -863.49605338 1497.52347353 C-863.50950356 1506.26176315 -863.50853594 1514.99997293 -863.49565142 1523.73826324 C-863.48871611 1528.72346484 -863.48821632 1533.7084452 -863.50521151 1538.69362756 C-863.52053551 1543.22533387 -863.51757979 1547.75663965 -863.49980123 1552.28833363 C-863.49664124 1553.92089466 -863.50024233 1555.55348573 -863.51129298 1557.18601242 C-863.52530154 1559.39898942 -863.5146902 1561.61054766 -863.49794465 1563.82347506 C-863.49834484 1565.04981519 -863.49874502 1566.27615532 -863.49915733 1567.53965728 C-862.74889464 1572.740755 -860.72085747 1576.59781984 -856.57421875 1579.9765625 C-855.14529297 1580.79253906 -855.14529297 1580.79253906 -853.6875 1581.625 C-853.13682861 1581.94581543 -852.58615723 1582.26663086 -852.01879883 1582.59716797 C-850.02324055 1583.751245 -848.01243325 1584.87561559 -846 1586 C-844.29121411 1586.9679515 -842.5829126 1587.93675844 -840.875 1588.90625 C-837.98469033 1590.5438558 -835.09271538 1592.17827283 -832.19677734 1593.8059082 C-825.19549458 1597.74167656 -818.24178168 1601.75146059 -811.3125 1605.8125 C-802.613668 1610.90788624 -793.88276863 1615.94424812 -785.125 1620.9375 C-772.7996267 1627.96582108 -760.50277786 1635.04240519 -748.21777344 1642.14111328 C-742.81329355 1645.26324605 -737.40652588 1648.38141204 -732 1651.5 C-729.8333225 1652.74998122 -727.66665583 1653.99998121 -725.5 1655.25 C-724.4275 1655.86875 -723.355 1656.4875 -722.25 1657.125 C-608.50000001 1722.74999999 -608.50000001 1722.74999999 -605.25048828 1724.62475586 C-603.08223736 1725.8756448 -600.91394303 1727.12645852 -598.74560547 1728.37719727 C-593.35282085 1731.48798335 -587.96077907 1734.60004238 -582.5703125 1737.71484375 C-570.76370516 1744.53502637 -558.93973 1751.3232326 -547.09527588 1758.07736206 C-538.05528292 1763.23416608 -529.05474679 1768.45543769 -520.07324219 1773.71337891 C-512.45094222 1778.16916344 -504.79468689 1782.56397146 -497.125 1786.9375 C-484.79974804 1793.96603507 -472.50277933 1801.04240434 -460.21777344 1808.14111328 C-454.81329355 1811.26324605 -449.40652588 1814.38141204 -444 1817.5 C-441.8333225 1818.74998122 -439.66665583 1819.99998121 -437.5 1821.25 C-436.4275 1821.86875 -435.355 1822.4875 -434.25 1823.125 C-346.50000002 1873.74999999 -346.50000002 1873.74999999 -343.25048828 1875.62475586 C-341.08223736 1876.8756448 -338.91394303 1878.12645852 -336.74560547 1879.37719727 C-331.35282085 1882.48798335 -325.96077907 1885.60004238 -320.5703125 1888.71484375 C-308.76370516 1895.53502637 -296.93973 1902.3232326 -285.09527588 1909.07736206 C-276.05670572 1914.23335445 -267.05722862 1919.45320673 -258.07763672 1924.71118164 C-250.41397748 1929.19189393 -242.71305362 1933.60515756 -235 1938 C-226.30598314 1942.95378823 -217.63502771 1947.94378369 -209 1953 C-200.4048271 1958.0318979 -191.77687778 1963.00389124 -183.125 1967.9375 C-170.79974804 1974.96603507 -158.50277933 1982.04240434 -146.21777344 1989.14111328 C-140.81329355 1992.26324605 -135.40652588 1995.38141204 -130 1998.5 C-127.8333225 1999.74998122 -125.66665583 2000.99998121 -123.5 2002.25 C-122.4275 2002.86875 -121.355 2003.4875 -120.25 2004.125 C-58.5 2039.75 -58.5 2039.75 -55.24511719 2041.62792969 C-53.09485681 2042.86838986 -50.94446776 2044.10862703 -48.79394531 2045.34863281 C-43.73102491 2048.26830662 -38.66941668 2051.19018475 -33.61242676 2054.12011719 C-31.23187827 2055.49918031 -28.85058694 2056.87695785 -26.46923828 2058.25463867 C-24.7951735 2059.22384658 -23.12218088 2060.19490565 -21.44921875 2061.16601562 C-20.42957031 2061.75576172 -19.40992188 2062.34550781 -18.359375 2062.953125 C-17.46702148 2063.47036133 -16.57466797 2063.98759766 -15.65527344 2064.52050781 C-7.32316743 2069.17233974 -7.32316743 2069.17233974 2 2069 C7.25089499 2066.77538418 12.09451542 2063.88599893 17 2061 C18.79640548 2059.95882491 20.59331025 2058.91851094 22.390625 2057.87890625 C26.45341339 2055.52188173 30.50818234 2053.15166359 34.55859375 2050.7734375 C40.97976754 2047.00569781 47.42403933 2043.27895689 53.875 2039.5625 C54.95434814 2038.94044678 56.03369629 2038.31839355 57.14575195 2037.67749023 C59.33632735 2036.41519376 61.52700131 2035.1530683 63.71777344 2033.89111328 C69.14659942 2030.76319852 74.57319281 2027.63141552 80 2024.5 C82.16665583 2023.24998121 84.3333225 2021.99998122 86.5 2020.75 C87.5725 2020.13125 88.645 2019.5125 89.75 2018.875 C93 2017 96.25 2015.125 99.5 2013.25 C100.57233887 2012.63133057 101.64467773 2012.01266113 102.74951172 2011.37524414 C104.91776264 2010.1243552 107.08605697 2008.87354148 109.25439453 2007.62280273 C114.64717915 2004.51201665 120.03922093 2001.39995762 125.4296875 1998.28515625 C136.74998296 1991.74579976 148.08331992 1985.23028704 159.4375 1978.75 C173.17760062 1970.90719921 186.8749946 1962.99444585 200.53710938 1955.01660156 C219.71345947 1943.81904917 238.95164974 1932.73123931 258.23706055 1921.72277832 C271.37683236 1914.22165671 284.47151654 1906.64611331 297.53710938 1899.01660156 C316.6010962 1887.8846609 335.72578879 1876.86091247 354.90216064 1865.92391968 C363.98795878 1860.74014875 373.03821041 1855.49805979 382.06738281 1850.21630859 C392.59111319 1844.06207011 403.1539592 1837.97620913 413.71777344 1831.89111328 C419.14659942 1828.76319852 424.57319281 1825.63141552 430 1822.5 C432.16665583 1821.24998121 434.3333225 1819.99998122 436.5 1818.75 C437.5725 1818.13125 438.645 1817.5125 439.75 1816.875 C553.50000003 1751.24999998 553.50000003 1751.24999998 556.75048828 1749.37475586 C558.91557071 1748.12564482 561.08060982 1746.87645871 563.24560547 1745.62719727 C568.68615706 1742.48797691 574.12747216 1739.35009437 579.5703125 1736.21484375 C590.02206199 1730.19252671 600.46299548 1724.15330663 610.875 1718.0625 C620.14499777 1712.64078822 629.45831752 1707.29795085 638.78845215 1701.98077393 C647.9128284 1696.77954871 657.00132774 1691.51972122 666.06689453 1686.21655273 C676.59084625 1680.06233258 687.15380137 1673.97630004 697.71777344 1667.89111328 C702.0641714 1665.3868587 706.40910273 1662.88006648 710.75390625 1660.37304688 C714.00503479 1658.49709485 717.25642374 1656.62159471 720.5078125 1654.74609375 C724.81601651 1652.26069098 729.12322789 1649.77358023 733.4296875 1647.28515625 C744.05386003 1641.14801669 754.68820637 1635.0298093 765.34631348 1628.95184326 C775.61420143 1623.09630727 785.85303893 1617.19412465 796.05419922 1611.22290039 C802.32612378 1607.55324601 808.6143595 1603.91345402 814.91479492 1600.29296875 C819.25098323 1597.79936686 823.58133705 1595.29578612 827.90966797 1592.78857422 C829.94094091 1591.61294572 831.97377608 1590.44001158 834.00830078 1589.27001953 C836.78330404 1587.67076223 839.54897424 1586.05648861 842.3125 1584.4375 C843.53018066 1583.74116455 843.53018066 1583.74116455 844.77246094 1583.03076172 C851.16086834 1579.25330436 855.64862697 1575.28642561 858 1568 C858.29970713 1564.72535015 858.29970713 1564.72535015 858.25415033 1561.11083621 C858.25891632 1560.08297481 858.25891632 1560.08297481 858.26377859 1559.03434853 C858.27201625 1556.72871488 858.26598157 1554.42333917 858.26006222 1552.11770153 C858.26305786 1550.4446793 858.26692767 1548.77165845 858.27159455 1547.09864005 C858.28191774 1542.47666886 858.27971023 1537.85477389 858.27553919 1533.23279614 C858.27318106 1528.21370686 858.28233148 1523.19463669 858.29002339 1518.17555457 C858.30189191 1509.37073544 858.30623531 1500.56593706 858.30570221 1491.76111031 C858.30491035 1478.66814409 858.31544455 1465.57520415 858.32811778 1452.48224494 C858.35158953 1427.74059965 858.36112662 1402.99895817 858.36586904 1378.2573038 C858.36639274 1375.52750299 858.36691857 1372.79770218 858.36744571 1370.06790137 C858.36757477 1369.39051248 858.36770383 1368.71312358 858.3678368 1368.01520775 C858.37074128 1353.01058151 858.37689913 1338.00595716 858.38354302 1323.00133218 C858.38626644 1316.82477385 858.38889749 1310.64821547 858.39152867 1304.4716571 C858.39181958 1303.78921983 858.39211049 1303.10678256 858.39241022 1302.40366537 C858.40903513 1263.29130854 858.42089076 1224.17895261 858.42332363 1185.06659222 C858.42341826 1183.60256356 858.42351327 1182.13853491 858.42360866 1180.67450626 C858.42403641 1174.06439163 858.42444179 1167.45427701 858.42484702 1160.84416239 C858.42502862 1157.89648404 858.42521351 1154.94880569 858.42539909 1152.00112734 C858.42549111 1150.52576046 858.42558151 1149.05039359 858.42567028 1147.57502671 C858.42848501 1100.91759286 858.45021575 1054.2602022 858.48706055 1007.6027832 C858.51452957 972.81142431 858.54041825 938.02007368 858.54700565 903.2287035 C858.54720581 902.17850075 858.54720581 902.17850075 858.54741001 901.10708178 C858.55028215 885.73838206 858.55169956 870.36968251 858.55176822 855.00098253 C858.55180791 849.50195526 858.55196486 844.002928 858.55218274 838.50390073 C858.55223639 837.13585215 858.5522845 835.76780357 858.55232707 834.399755 C858.55307091 812.59011754 858.56874599 790.78052265 858.59193837 768.9708985 C858.61583746 746.39732565 858.62162587 723.82380261 858.60653328 701.25021943 C858.59836178 688.22992738 858.60414353 675.20981445 858.62971413 662.189544 C858.64540605 653.50055025 858.64304973 644.81168437 858.6258074 636.12269382 C858.61648894 631.16648676 858.61518409 626.21062593 858.63577347 621.25444516 C858.65433652 616.747873 858.6499936 612.24193272 858.62718253 607.73538537 C858.62301677 606.11308102 858.62727559 604.49072821 858.64088022 602.86847555 C858.81709393 590.996505 858.81709393 590.996505 853 581 C847.27174728 575.5017536 839.49567716 571.96527934 832.5637207 568.1730957 C826.14429026 564.6606751 819.81286349 561.01268247 813.5 557.3125 C805.0574365 552.36810958 796.60196308 547.44771316 788.125 542.5625 C787.04541016 541.94028564 785.96582031 541.31807129 784.85351562 540.67700195 C782.6631748 539.41488483 780.47274498 538.15292215 778.28222656 536.89111328 C772.85340058 533.76319852 767.42680719 530.63141552 762 527.5 C759.83334417 526.24998121 757.6666775 524.99998122 755.5 523.75 C681.83333333 481.25 608.16666667 438.75 534.5 396.25 C533.42733887 395.63116943 532.35467773 395.01233887 531.24951172 394.37475586 C529.08442929 393.12564482 526.91939018 391.87645871 524.75439453 390.62719727 C519.31384294 387.48797691 513.87252784 384.35009437 508.4296875 381.21484375 C497.97793721 375.19252625 487.53706885 369.15319743 477.125 363.0625 C467.30861542 357.32246579 457.44534506 351.66676663 447.56738281 346.03369141 C436.42847496 339.68076105 425.3206742 333.27453369 414.21777344 326.85888672 C409.89752357 324.36310656 405.57577013 321.86993703 401.25390625 319.37695312 C398.00503504 317.50290437 394.75642368 315.62840572 391.5078125 313.75390625 C387.14934612 311.23930564 382.78987809 308.72645339 378.4296875 306.21484375 C367.93767828 300.16944796 357.45524681 294.10878989 347 288 C329.09088937 277.53805283 311.11300851 267.19734273 293.0958252 256.9229126 C284.05706757 251.76683517 275.05740558 246.54689688 266.07763672 241.28881836 C258.41397544 236.80810487 250.71298363 232.39496772 243 228 C233.27875494 222.46014067 223.59105132 216.86625068 213.93310547 211.21655273 C203.40915375 205.06233258 192.84619863 198.97630004 182.28222656 192.89111328 C176.85340058 189.76319852 171.42680719 186.63141552 166 183.5 C163.83334417 182.24998121 161.6666775 180.99998122 159.5 179.75 C129.16666667 162.25 98.83333333 144.75 68.5 127.25 C67.4267749 126.63084717 66.3535498 126.01169434 65.24780273 125.3737793 C63.08840605 124.1279423 60.92906331 122.88201182 58.76977539 121.63598633 C53.24232403 118.44651047 47.71384879 115.25883115 42.18359375 112.07421875 C39.93484454 110.77873487 37.68614591 109.48316318 35.4375 108.1875 C33.81896118 107.25526611 33.81896118 107.25526611 32.16772461 106.30419922 C25.07600446 102.21393363 18.00676767 98.08761123 10.98413086 93.87963867 C-1.23191687 86.61514543 -10.72640255 89.9730797 -22.125 97.0625 Z " fill="#8F0000" transform="translate(936,0)"/>
<path d="M0 0 C4.30763901 1.57844928 6.7309776 4.88525471 9.5625 8.3125 C10.0884375 8.93769531 10.614375 9.56289063 11.15625 10.20703125 C12.24640424 11.50371352 13.3337902 12.80272798 14.41845703 14.10400391 C16.32118827 16.3850491 18.23941265 18.6526159 20.15991211 20.91870117 C21.05874149 21.97931657 21.95668073 23.04068693 22.85375977 24.1027832 C26.21718878 28.08463558 29.60431295 32.0456395 33 36 C37.30766901 41.01638576 41.58994574 46.05322104 45.85546875 51.10546875 C49.21902365 55.08583601 52.60499713 59.04643624 56 63 C60.30766901 68.01638576 64.58994574 73.05322104 68.85546875 78.10546875 C72.21902365 82.08583601 75.60499713 86.04643624 79 90 C83.30766901 95.01638576 87.58994574 100.05322104 91.85546875 105.10546875 C95.21902365 109.08583601 98.60499713 113.04643624 102 117 C106.30766901 122.01638576 110.58994574 127.05322104 114.85546875 132.10546875 C118.21902365 136.08583601 121.60499713 140.04643624 125 144 C129.30766901 149.01638576 133.58994574 154.05322104 137.85546875 159.10546875 C141.21902365 163.08583601 144.60499713 167.04643624 148 171 C152.30766901 176.01638576 156.58994574 181.05322104 160.85546875 186.10546875 C164.21902365 190.08583601 167.60499713 194.04643624 171 198 C175.30766901 203.01638576 179.58994574 208.05322104 183.85546875 213.10546875 C187.21902365 217.08583601 190.60499713 221.04643624 194 225 C197.85133949 229.48497889 201.68630412 233.98296702 205.5 238.5 C210.36427086 244.26080888 215.26450086 249.99018015 220.17578125 255.7109375 C220.60622427 256.23470946 221.03666729 256.75848143 221.48015404 257.29812527 C222.91844383 259.01326652 222.91844383 259.01326652 224.56435585 260.20810795 C227.86086518 263.04756293 228.90519918 265.35608466 229.54241562 269.68424797 C229.82188592 274.56403758 229.7424784 279.44285287 229.68115234 284.32788086 C229.67945895 286.21066229 229.68041176 288.09344768 229.68380737 289.97622681 C229.68552687 295.07723789 229.65028394 300.17740017 229.60836363 305.27821422 C229.57082221 310.6126427 229.56732857 315.94709126 229.56021118 321.28163147 C229.54157241 331.37867803 229.49234828 341.47533419 229.43211424 351.57220894 C229.36501915 363.06907434 229.33205252 374.56595851 229.30194163 386.062971 C229.23924856 409.70886366 229.13373213 433.35440994 229 457 C227.91987732 457.00146521 227.91987732 457.00146521 226.81793398 457.00296003 C184.10440526 457.06127962 141.39092736 457.13511236 98.67746123 457.22898628 C93.54449588 457.24025394 88.41153026 457.25139247 83.27856445 457.26245117 C81.74579514 457.2657567 81.74579514 457.2657567 80.18206079 457.269129 C63.65406075 457.30446515 47.12606076 457.32935006 30.598037 457.35034702 C13.6285382 457.37213843 -3.34091174 457.40522052 -20.31036896 457.44870156 C-30.77458539 457.47516077 -41.238741 457.49289831 -51.70298921 457.49934604 C-58.88660454 457.50461749 -66.07014342 457.52089321 -73.25371773 457.54566566 C-77.3932329 457.55962064 -81.53261143 457.56887407 -85.67215157 457.56500816 C-89.4719714 457.56156736 -93.27150072 457.57213612 -97.07126116 457.59323552 C-99.07629469 457.60089704 -101.08136796 457.59411223 -103.086402 457.58658296 C-115.34428581 457.68123469 -127.08635097 459.79300261 -138.5625 464.1875 C-139.35841553 464.48793213 -140.15433105 464.78836426 -140.97436523 465.09790039 C-152.54370478 469.61250965 -162.61442361 475.83795584 -172 484 C-173.26457031 485.06541016 -173.26457031 485.06541016 -174.5546875 486.15234375 C-194.98910808 503.82283814 -208.00106584 530.09686915 -210 557 C-210.2301521 560.87356569 -210.40462001 564.74788156 -210.5625 568.625 C-210.60568359 569.62917969 -210.64886719 570.63335938 -210.69335938 571.66796875 C-210.79809859 574.11188383 -210.90027256 576.55587617 -211 579 C-256.21101756 579.81055609 -302.67183806 577.3722862 -347 568 C-348.0101416 567.78762695 -349.0202832 567.57525391 -350.06103516 567.35644531 C-416.97151932 553.05666136 -472.56635064 522.76468466 -524.06079102 478.23828125 C-527.51059432 475.25829936 -531.00822059 472.35575051 -534.5625 469.5 C-538.69628615 466.14926585 -542.61601087 462.63199628 -546.5 459 C-552.13626524 453.7351485 -557.9823459 448.82674221 -564 444 C-565.19273342 443.0172335 -566.38405401 442.03275069 -567.57421875 441.046875 C-593.24796212 419.83869652 -620.88819174 401.1546466 -650 385 C-650.88316895 384.50951172 -651.76633789 384.01902344 -652.67626953 383.51367188 C-674.24406207 371.64593651 -696.85619066 362.30630108 -720 354 C-721.09731445 353.5992627 -722.19462891 353.19852539 -723.32519531 352.78564453 C-749.95462468 343.08465327 -777.05898931 335.75639796 -804.92333984 330.57373047 C-810.58021008 329.51884672 -816.22787145 328.41814064 -821.875 327.3125 C-823.48193726 327.00844238 -823.48193726 327.00844238 -825.12133789 326.69824219 C-826.10996826 326.50520508 -827.09859863 326.31216797 -828.1171875 326.11328125 C-828.98972168 325.94610596 -829.86225586 325.77893066 -830.76123047 325.60668945 C-833 325 -833 325 -836 323 C-835.35675781 322.33097656 -834.71351563 321.66195313 -834.05078125 320.97265625 C-811.67683597 297.19435492 -795.24496875 269.13208747 -779.51654053 240.72369385 C-758.09947764 202.0451974 -735.35806853 163.53109599 -690.68847656 149.77880859 C-680.30246204 146.79970142 -669.62009542 144.92889139 -659 143 C-658.27474121 142.86432617 -657.54948242 142.72865234 -656.80224609 142.58886719 C-646.86381204 140.76033954 -637.06231453 140.79464664 -627 141 C-626.97812622 141.94915283 -626.97812622 141.94915283 -626.95581055 142.91748047 C-626.07529326 177.32299359 -618.94145129 207.63478542 -593.51904297 232.4453125 C-586.13260679 239.36006385 -577.91786296 244.37553974 -569 249 C-568.07445312 249.48339844 -567.14890625 249.96679688 -566.1953125 250.46484375 C-558.75647356 254.0959684 -551.03024135 256.10834961 -543 258 C-542.26355627 258.17866724 -541.52711254 258.35733447 -540.76835233 258.54141587 C-537.2774955 259.11968458 -533.85057043 259.1415677 -530.32355022 259.13422108 C-529.55436452 259.13657331 -528.78517882 259.13892554 -527.99268445 259.14134905 C-525.40605342 259.14802486 -522.81947278 259.14758125 -520.23283386 259.14717102 C-518.36313673 259.15047054 -516.4934403 259.1541963 -514.62374479 259.1583125 C-509.4782142 259.16833085 -504.33269528 259.17204904 -499.18715632 259.17470181 C-493.64018739 259.17860543 -488.09322769 259.18818385 -482.54626465 259.19691467 C-469.14511394 259.21667908 -455.74396247 259.226746 -442.34280083 259.23564246 C-436.03047239 259.24002605 -429.7181448 259.24539274 -423.40581703 259.25063133 C-402.41869254 259.26764481 -381.43156821 259.28216294 -360.44443798 259.28938007 C-359.08730412 259.28985483 -357.73017026 259.29033072 -356.3730364 259.29080774 C-355.70003407 259.29104411 -355.02703175 259.29128049 -354.33363541 259.29152403 C-350.92400238 259.2927252 -347.51436935 259.29394065 -344.10473633 259.29516602 C-343.08976605 259.29552624 -343.08976605 259.29552624 -342.05429133 259.29589374 C-320.13119381 259.30378118 -298.20815049 259.32720087 -276.28507662 259.35972196 C-253.09407038 259.39406093 -229.90309451 259.41373395 -206.71205884 259.41702431 C-194.07567128 259.41918788 -181.43936334 259.42791393 -168.8029995 259.45348549 C-158.03904017 259.47521767 -147.27517982 259.48323053 -136.51120105 259.47351871 C-131.02265956 259.46898114 -125.53432215 259.47082873 -120.04580879 259.49028015 C-115.01252145 259.50796351 -109.9795863 259.50687217 -104.94629494 259.49138286 C-103.13391976 259.48901461 -101.32151987 259.49328926 -99.50918236 259.50521151 C-68.53846597 259.69618391 -40.95406267 247.24964423 -18.3046875 226.30078125 C0.76265157 207.2657597 12.03444994 180.23074224 12.14663696 153.3956604 C12.14618378 152.30248505 12.14573059 151.20930969 12.14526367 150.08300781 C12.14862228 148.9111795 12.1519809 147.7393512 12.15544128 146.53201294 C12.16491117 142.67237273 12.16689244 138.81277609 12.16796875 134.953125 C12.1693937 133.6160963 12.17098994 132.27906778 12.17275429 130.94203949 C12.18198838 123.93856885 12.18609169 116.93511715 12.18530273 109.93164062 C12.18470278 103.43333178 12.19524349 96.93510617 12.2110464 90.43681836 C12.2241816 84.83311492 12.22948412 79.22943848 12.22884732 73.62571979 C12.22859405 70.28981433 12.23229005 66.9540415 12.24202538 63.61814117 C12.25188589 59.89021513 12.24892321 56.16250018 12.24291992 52.43457031 C12.25134918 50.80695267 12.25134918 50.80695267 12.25994873 49.14645386 C12.21706484 38.60093019 10.59122056 28.70427442 7.125 18.75 C6.75955078 17.64398437 6.75955078 17.64398437 6.38671875 16.515625 C4.85572388 12.00989918 3.01271034 7.83302531 0.76513672 3.63769531 C0 2 0 2 0 0 Z " fill="#730000" transform="translate(1531,673)"/>
<path d="M0 0 C4.50348087 3.86012646 8.05958939 7.08351742 11.80078125 11.48046875 C14.70712847 14.81012054 17.72665638 18.02671907 20.75 21.25 C26.87927643 27.79243146 32.95305709 34.38141108 39 41 C40.8325302 43.00073663 42.66627021 45.00036286 44.5 47 C45.41668877 47.99997974 46.33335546 48.99997972 47.25 50 C47.70375 50.495 48.1575 50.99 48.625 51.5 C94 101 139.375 150.5 274.12475586 297.49975586 C275.04220685 298.50059668 275.95968736 299.50141045 276.87719727 300.50219727 C279.15710551 302.98911261 281.43651293 305.47648315 283.71484375 307.96484375 C288.46607559 313.15297047 293.22608074 318.33273561 298 323.5 C303.22812079 329.15888968 308.43844089 334.83382832 313.64111328 340.51611328 C315.92642496 343.01164407 318.2132958 345.50574527 320.5 348 C321.41667404 348.99999325 322.3333407 349.99999324 323.25 351 C323.70375 351.495 324.1575 351.99 324.625 352.5 C370 402 415.375 451.5 627.12475586 682.49975586 C628.04220685 683.50059668 628.95968736 684.50141045 629.87719727 685.50219727 C632.15710551 687.98911261 634.43651293 690.47648315 636.71484375 692.96484375 C641.46607559 698.15297047 646.22608074 703.33273561 651 708.5 C655.76459595 713.65717289 660.51757634 718.82465902 665.25390625 724.0078125 C667.16617683 726.0975672 669.09258039 728.17324593 671.02734375 730.2421875 C671.77359009 731.04450806 671.77359009 731.04450806 672.53491211 731.86303711 C673.91627802 733.34752782 675.30175848 734.82818675 676.6875 736.30859375 C678.80199165 738.76954772 680.43645846 741.16608096 682 744 C678.45565573 742.65544302 675.19200807 741.08771656 671.88671875 739.234375 C670.40498169 738.40510498 670.40498169 738.40510498 668.89331055 737.55908203 C667.83539307 736.96208496 666.77747559 736.36508789 665.6875 735.75 C664.57737549 735.12593262 663.46725098 734.50186523 662.32348633 733.85888672 C653.91412229 729.11630308 645.56308564 724.27753894 637.23510742 719.39355469 C629.52145758 714.87329446 621.76841166 710.42511343 614 706 C604.3250039 700.48768825 594.68717423 694.91575176 585.078125 689.2890625 C577.4142623 684.80833854 569.71321165 680.39493248 562 676 C552.32518781 670.48736165 542.68717863 664.91575433 533.078125 659.2890625 C525.4142623 654.80833854 517.71321165 650.39493248 510 646 C500.32518781 640.48736165 490.68717863 634.91575433 481.078125 629.2890625 C473.4142623 624.80833854 465.71321165 620.39493248 458 616 C449.30598314 611.04621177 440.63502771 606.05621631 432 601 C423.4048271 595.9681021 414.77687778 590.99610876 406.125 586.0625 C393.79974804 579.03396493 381.50277933 571.95759566 369.21777344 564.85888672 C363.81329355 561.73675395 358.40652588 558.61858796 353 555.5 C350.8333225 554.25001878 348.66665583 553.00001879 346.5 551.75 C345.4275 551.13125 344.355 550.5125 343.25 549.875 C47.50000001 379.25 47.50000001 379.25 44.24414062 377.37158203 C42.09704864 376.13289998 39.94991386 374.8942921 37.80273438 373.65576172 C32.70411191 370.7146665 27.60594704 367.77278587 22.50927734 364.82830811 C20.08952335 363.43041399 17.66952737 362.03293911 15.24951172 360.63549805 C13.53198948 359.64347676 11.81481948 358.65084571 10.09765625 357.65820312 C9.06511719 357.06201172 8.03257813 356.46582031 6.96875 355.8515625 C6.05544922 355.32385254 5.14214844 354.79614258 4.20117188 354.25244141 C2.82011309 353.46663489 1.42121505 352.71060752 0 352 C0 235.84 0 119.68 0 0 Z " fill="#8F0000" transform="translate(107,1205)"/>
<path d="M0 0 C1.8114308 -0.00345891 3.62285949 -0.00822505 5.43428379 -0.01418173 C10.39999194 -0.02668934 15.36552681 -0.02052237 20.33123553 -0.01122308 C25.69124875 -0.00443193 31.0512323 -0.01491419 36.41123962 -0.02316284 C46.90705964 -0.03650191 57.40281529 -0.03362156 67.89863782 -0.02492492 C76.42952188 -0.01814912 84.9603879 -0.01723121 93.49127388 -0.02049637 C94.70555083 -0.02095607 95.91982777 -0.02141577 97.17090099 -0.0218894 C99.63771288 -0.02284858 102.10452476 -0.02382122 104.57133663 -0.02480717 C127.70243462 -0.03336167 150.83349693 -0.02352617 173.96458907 -0.00740607 C193.80901658 0.00599546 213.65339143 0.00367047 233.49781799 -0.01016235 C256.54473537 -0.02622001 279.59162148 -0.03253591 302.63854367 -0.02332556 C305.0965745 -0.02236992 307.55460534 -0.02142681 310.01263618 -0.02049637 C311.22201858 -0.02003354 312.43140098 -0.01957072 313.67743133 -0.01909386 C322.19684171 -0.01650441 330.71623226 -0.02087406 339.23563957 -0.02793503 C349.61978707 -0.03635234 360.00386655 -0.03406503 370.38800626 -0.0180928 C375.68541778 -0.010213 380.98271591 -0.00711358 386.28012657 -0.01704025 C391.13156214 -0.02599366 395.98277944 -0.02104352 400.83419526 -0.0051076 C402.58711865 -0.00176253 404.34006055 -0.00344768 406.09297197 -0.01073496 C418.8032668 -0.05951232 430.36615869 0.55253367 440.31886292 9.38095093 C447.77899493 18.13664022 449.61899496 25.43884813 449.60939026 36.71957397 C449.61610748 37.85370224 449.62282471 38.98783051 449.62974548 40.15632629 C449.64872634 43.90181881 449.65265004 47.64713207 449.65480042 51.39266968 C449.66122923 54.00333225 449.66795765 56.61399409 449.67497253 59.22465515 C449.68774838 64.69790814 449.69073915 70.17111278 449.68946838 75.64437866 C449.68826904 81.94736957 449.70933419 88.25001692 449.74095571 94.552921 C449.77039243 100.63979777 449.77744082 106.72651139 449.77624893 112.81345558 C449.77860179 115.39171563 449.78740741 117.96997849 449.80291367 120.54819298 C449.82262181 124.16419905 449.81671522 127.77933358 449.80470276 131.39535522 C449.81594177 132.44976807 449.82718079 133.50418091 449.83876038 134.59054565 C449.75786337 144.22724336 447.28109741 154.31242278 440.31886292 161.38095093 C429.32309633 170.44763566 418.1884506 170.81940207 404.60649109 170.76863098 C402.7916477 170.77280648 400.97680692 170.77828518 399.16197097 170.78495079 C394.18679718 170.79939578 389.21178919 170.7951636 384.23660636 170.78778398 C378.86634503 170.78305229 373.49611957 170.79556219 368.12586975 170.80580139 C357.60966545 170.82299472 347.09352088 170.82382827 336.57730617 170.81858849 C328.02926743 170.81454652 319.48124635 170.81599067 310.93320847 170.82133675 C309.71644488 170.82208517 308.4996813 170.82283359 307.24604609 170.82360469 C304.77416293 170.82513617 302.30227978 170.82667452 299.83039664 170.82821966 C276.65110449 170.84194666 253.4718461 170.83650562 230.29255472 170.82503445 C209.09031776 170.81510208 187.88816807 170.82804247 166.68594457 170.85196864 C144.9113885 170.87635539 123.13687307 170.88596853 101.36230361 170.87931591 C89.13918067 170.87582273 76.91612485 170.87806235 64.69301224 170.89556694 C54.287653 170.91028359 43.88240814 170.91093132 33.47705115 170.89349603 C28.16935582 170.88497928 22.86186486 170.88285314 17.55418015 170.89814758 C12.69215195 170.91198427 7.83050343 170.90724443 2.96849726 170.88790835 C1.21286324 170.88414493 -0.54280112 170.88708015 -2.29840814 170.89752 C-14.9330987 170.96729017 -25.60617216 169.82883836 -35.67332458 161.43954468 C-43.96387913 152.93930684 -45.98148446 143.56758915 -45.97166443 132.11825562 C-45.97838165 130.99227463 -45.98509888 129.86629364 -45.99201965 128.70619202 C-46.01099796 124.98835826 -46.01492396 121.27070509 -46.01707458 117.55282593 C-46.02350313 114.96218797 -46.03023153 112.37155074 -46.0372467 109.78091431 C-46.04921944 104.35053516 -46.05301337 98.92022737 -46.05174255 93.48983765 C-46.05054264 87.23340495 -46.07161966 80.97731805 -46.10322988 74.72097278 C-46.1326477 68.68107587 -46.13971554 62.64136506 -46.1385231 56.60138702 C-46.14087743 54.04183797 -46.14969137 51.48228613 -46.16518784 48.9227829 C-46.18487258 45.33530846 -46.17899874 41.74871421 -46.16697693 38.16122437 C-46.17821594 37.11256699 -46.18945496 36.06390961 -46.20103455 34.98347473 C-46.11796738 25.18518954 -43.37193623 17.28257087 -36.59519958 10.13095093 C-25.84330698 0.30064912 -13.7934414 -0.05726336 0 0 Z " fill="#8F0000" transform="translate(1017.6811370849609,689.6190490722656)"/>
<path d="M0 0 C87.09778894 -0.20165675 87.09778894 -0.20165675 123.47265625 -0.24414062 C131.79834034 -0.25392973 140.12402396 -0.26403206 148.44970703 -0.2746582 C149.49317036 -0.27597695 150.53663368 -0.27729569 151.6117171 -0.2786544 C168.44927476 -0.30039048 185.28674687 -0.33980379 202.12425384 -0.38576398 C219.40897613 -0.43255079 236.6936537 -0.46030011 253.97843671 -0.47044247 C264.64083358 -0.477297 275.30298879 -0.4989326 285.96531126 -0.53958233 C293.28064779 -0.56604814 300.5958597 -0.5739923 307.91124061 -0.56750689 C312.12949795 -0.56430997 316.34733351 -0.5691493 320.56551552 -0.59602737 C324.43375034 -0.62049462 328.30128277 -0.62150143 332.16955104 -0.60449447 C333.56277091 -0.60239495 334.95603597 -0.60862363 336.34916791 -0.62441591 C347.03191541 -0.73839027 355.28396361 1.33310873 364.3125 7.125 C373.33067344 16.77234833 376.29602082 25.77288749 376.32226562 38.68994141 C376.33219543 39.86147766 376.34212524 41.03301392 376.35235596 42.24005127 C376.38153166 46.11057907 376.39519289 49.98094285 376.40625 53.8515625 C376.41172623 55.19044466 376.41743938 56.52932587 376.42338562 57.86820602 C376.45070756 64.16224636 376.47005274 70.45623507 376.4777894 76.75033057 C376.48673525 83.98604487 376.52176894 91.22100061 376.57979059 98.45648444 C376.62321291 104.06865145 376.643208 109.68060656 376.64587164 115.29293954 C376.64795511 118.6359875 376.66244398 121.97775686 376.69551086 125.3207283 C376.72984333 129.0589574 376.7258216 132.79536614 376.71289062 136.53369141 C376.73132019 137.62191193 376.74974976 138.71013245 376.76873779 139.83132935 C376.66063698 149.87004412 373.09069572 158.42250078 365.875 165.5 C356.43317966 172.87196161 345.89332258 173.58608533 334.30755615 173.48101807 C332.8576411 173.48276604 331.40772731 173.48627508 329.95782018 173.49137473 C326.00561805 173.50025434 322.05385535 173.48440881 318.10170913 173.46426249 C313.82785244 173.44689975 309.55401817 173.45284039 305.28013611 173.45587158 C297.88598567 173.45796339 290.49197702 173.44547207 283.09786224 173.42292023 C272.40739388 173.39033591 261.7169937 173.37998664 251.02648106 173.37496826 C233.67956185 173.36622568 216.33271811 173.33963829 198.98583984 173.30175781 C182.140466 173.26501085 165.29511281 173.23675813 148.44970703 173.21972656 C147.39981444 173.21865457 146.34992186 173.21758258 145.26821434 173.21647811 C137.05669312 173.20815984 128.84517144 173.20033235 120.63364959 173.19265985 C80.42236377 173.15496264 40.21126701 173.07448063 0 173 C0 115.91 0 58.82 0 0 Z " fill="#8F0000" transform="translate(107,957)"/>
<path d="M0 0 C1.78623951 -0.00298657 1.78623951 -0.00298657 3.60856467 -0.00603348 C5.56526557 -0.00166422 5.56526557 -0.00166422 7.56149578 0.00279331 C8.96411858 0.0023572 10.3667413 0.00148156 11.76936358 0.00020415 C15.62321077 -0.00203298 19.4770302 0.0019698 23.33087385 0.00698221 C27.48692567 0.01129772 31.64297591 0.0098395 35.79902935 0.00907993 C42.9995368 0.0085554 50.20003518 0.01169486 57.40054035 0.01731777 C67.81128235 0.02544229 78.22201996 0.02804897 88.63276478 0.02930576 C105.52321076 0.03149478 122.41365191 0.03815081 139.30409527 0.04760838 C155.71229815 0.05678636 172.12049972 0.06385384 188.52870464 0.06811619 C190.06109495 0.06851818 190.06109495 0.06851818 191.62444264 0.0689283 C199.61388856 0.0710077 207.60333451 0.07296464 215.59278047 0.07488286 C254.75868215 0.08431779 293.92457175 0.10443581 333.09047222 0.12304783 C333.09047222 55.89304783 333.09047222 111.66304783 333.09047222 169.12304783 C248.42152675 169.24404188 248.42152675 169.24404188 213.07484722 169.2695322 C204.98435225 169.27540576 196.89385744 169.28146718 188.80336285 169.28784275 C187.78936137 169.288634 186.7753599 169.28942524 185.73063111 169.29024047 C169.36372623 169.30328578 152.99685299 169.32693582 136.62996687 169.35450622 C119.83115621 169.38256804 103.03236211 169.39922574 86.23352897 169.40531331 C75.86907448 169.40942813 65.5047094 169.42242114 55.14028244 169.44679723 C48.0314873 169.46266399 40.92273833 169.46744605 33.81392677 169.46355196 C29.71348707 169.46163189 25.61320352 169.46456022 21.51279163 169.48066425 C17.75459348 169.49531613 13.99665579 169.49596613 10.23844539 169.48574451 C8.24360475 169.48388666 6.24876695 169.49677789 4.25397122 169.51029176 C-7.40261946 169.45230743 -16.46234058 167.50562939 -24.90952778 159.12304783 C-31.74752643 150.70367048 -33.20960401 143.35115815 -33.2317934 132.70849705 C-33.24172321 131.5662215 -33.25165302 130.42394596 -33.26188374 129.24705601 C-33.2910547 125.47392442 -33.30471993 121.70096109 -33.31577778 117.92773533 C-33.32728811 115.29704886 -33.33880348 112.66636242 -33.35032368 110.035676 C-33.36944381 105.22384803 -33.38125066 100.41205609 -33.38731718 95.60019481 C-33.39626239 88.5461536 -33.4312934 81.49289061 -33.48931837 74.43908584 C-33.53800143 68.30521332 -33.55321741 62.17165855 -33.55666828 56.03760242 C-33.56269968 53.44060249 -33.57868337 50.84360496 -33.60503864 48.24673176 C-33.63938425 44.60188739 -33.63534639 40.95890902 -33.6224184 37.3139658 C-33.64084797 36.25379749 -33.65927753 35.19362919 -33.67826557 34.10133457 C-33.57219118 24.4911963 -30.07841987 16.3161966 -23.59702778 9.18554783 C-16.56578529 2.80909954 -9.43581078 -0.00348571 0 0 Z " fill="#8F0000" transform="translate(1426.9095277786255,1203.8769521713257)"/>
<path d="M0 0 C2.94921961 2.79768669 5.2888744 5.66390667 7.56640625 9.02734375 C8.21673828 9.98447266 8.86707031 10.94160156 9.53710938 11.92773438 C10.20548828 12.92095703 10.87386719 13.91417969 11.5625 14.9375 C12.23474609 15.92685547 12.90699219 16.91621094 13.59960938 17.93554688 C16.5102423 22.23357185 19.360539 26.52870794 22 31 C17.09412542 32.60191823 13.22435233 33.1003477 8 33 C7.84144531 32.00742187 7.68289063 31.01484375 7.51953125 29.9921875 C6.09041843 21.5234096 4.11827053 13.8164516 0.98828125 5.79296875 C0 3 0 3 0 0 Z " fill="#750404" transform="translate(548,950)"/>
</svg>
